<svg xmlns="http://www.w3.org/2000/svg" viewBox="235 -5 110 130" width="110" height="130">
<path fill="#F0E4D4" opacity="1.000000" stroke="none" 
	d="
M314.539368,1.000000 
	C315.021790,1.388520 315.043610,1.777039 315.033447,2.579313 
	C315.001465,2.993066 314.753723,3.246935 314.406311,3.107464 
	C309.588074,1.112164 305.998352,2.343670 303.085144,6.060858 
	C303.044495,6.033459 303.082977,6.123665 302.775879,6.189607 
	C301.890472,7.099072 301.312195,7.942596 300.482880,9.028795 
	C298.126221,13.522656 296.020599,17.773844 293.642670,22.216291 
	C292.131409,24.483757 290.892517,26.559959 289.402710,28.877224 
	C286.491608,34.756783 283.831360,40.395279 280.977295,46.346695 
	C278.487610,52.721310 276.191803,58.783001 273.528564,64.936226 
	C271.658966,69.590820 270.156738,74.153877 268.367981,78.842682 
	C267.443451,80.230385 266.805450,81.492348 266.167480,82.754311 
	C265.804932,81.388939 264.777130,79.777367 265.177917,78.694527 
	C273.275909,56.814125 282.121460,35.255199 294.215790,15.207288 
	C297.014771,10.567615 300.251862,6.192253 303.143677,1.347629 
	C306.692902,1.000000 310.385834,1.000000 314.539368,1.000000 
z"/><path fill="#6B4528" opacity="1.000000" stroke="none" 
	d="
M325.981018,113.686020 
	C323.856934,112.854439 321.732880,112.022858 319.259216,110.613800 
	C317.228851,107.395905 315.548065,104.755486 314.163666,101.861320 
	C314.887421,99.876930 315.438263,98.165375 315.709473,96.410583 
	C316.015717,94.429176 316.070526,92.408913 316.234680,90.405548 
	C314.409851,90.681259 312.585052,90.956978 312.026611,91.041359 
	C309.548737,89.062355 307.485901,87.714508 305.831146,85.977814 
	C304.879059,84.978607 304.587616,83.349915 304.148499,81.697311 
	C305.341400,80.115875 306.147614,78.143974 307.470917,77.694557 
	C311.960571,76.169731 312.344391,72.871574 312.388611,68.983597 
	C313.699219,68.744400 314.737701,68.203438 315.588898,68.415192 
	C320.072388,69.530487 322.472076,68.660645 321.383850,63.336555 
	C321.108124,61.987705 321.766174,60.448002 321.996460,58.530010 
	C321.665710,51.709183 321.333618,45.354340 320.997467,38.616451 
	C320.009735,35.481426 319.026031,32.729446 318.056030,29.686634 
	C318.364014,28.930222 318.658234,28.464638 319.233124,27.997662 
	C319.700928,27.995468 319.888031,27.994667 320.332703,28.184408 
	C321.709808,29.253786 322.829315,30.132622 324.076904,31.326845 
	C324.384460,32.744801 324.563873,33.847366 324.421082,35.036926 
	C324.188141,36.957775 324.170746,38.804230 324.385590,40.623249 
	C325.200500,47.522106 327.279602,54.523521 326.646637,61.276699 
	C325.884125,69.411819 322.674988,77.296577 320.898163,85.371826 
	C320.427307,87.511810 320.928162,90.094109 321.681976,92.226082 
	C323.118469,96.288628 327.582764,99.539474 324.471649,104.759254 
	C324.150543,105.298027 325.839233,107.034676 326.463867,108.655624 
	C326.215271,110.625839 326.098145,112.155930 325.981018,113.686020 
z"/><path fill="#A87545" opacity="1.000000" stroke="none" 
	d="
M326.595367,108.215485 
	C325.839233,107.034676 324.150543,105.298027 324.471649,104.759254 
	C327.582764,99.539474 323.118469,96.288628 321.681976,92.226082 
	C320.928162,90.094109 320.427307,87.511810 320.898163,85.371826 
	C322.674988,77.296577 325.884125,69.411819 326.646637,61.276699 
	C327.279602,54.523521 325.200500,47.522106 324.385590,40.623249 
	C324.170746,38.804230 324.188141,36.957775 324.555176,35.412399 
	C326.359161,43.640968 327.539520,51.614750 329.128571,59.506237 
	C329.869263,63.184818 331.401947,66.703911 332.575653,70.295296 
	C332.575653,70.295296 332.807526,70.629288 332.917969,71.138252 
	C333.797211,73.213997 334.565979,74.780777 335.334747,76.347565 
	C335.575348,76.960579 335.815948,77.573601 336.111755,78.851410 
	C336.796539,81.010933 337.426147,82.505661 338.055756,84.000397 
	C338.148041,84.384453 338.240295,84.768509 338.275940,85.892715 
	C338.247345,88.822861 338.275360,91.012871 338.303406,93.202881 
	C338.193451,93.600998 338.083496,93.999107 337.628845,94.880371 
	C337.165253,96.219521 337.046295,97.075523 336.927338,97.931519 
	C336.235992,98.626549 335.544678,99.321571 334.287109,99.898941 
	C332.884888,98.922203 332.048920,98.063110 331.212921,97.204025 
	C330.360596,98.121613 329.061340,98.907486 328.744385,99.982880 
	C327.968353,102.615646 327.645935,105.382126 327.012665,108.161560 
	C326.884369,108.228333 326.595367,108.215485 326.595367,108.215485 
M332.240082,78.502777 
	C331.566284,77.080780 330.892456,75.658791 330.218628,74.236801 
	C329.706268,74.296677 329.193878,74.356552 328.681488,74.416435 
	C328.801941,75.814560 328.750610,77.254402 329.078003,78.602257 
	C329.793640,81.548386 332.166534,85.095551 331.222687,87.229874 
	C329.324402,91.522644 331.837738,91.161278 334.901581,92.203880 
	C334.054443,87.451485 333.320099,83.331902 332.240082,78.502777 
z"/><path fill="#5C3A1E" opacity="1.000000" stroke="none" 
	d="
M303.998779,82.004570 
	C304.587616,83.349915 304.879059,84.978607 305.831146,85.977814 
	C307.485901,87.714508 309.548737,89.062355 312.026611,91.041359 
	C312.585052,90.956978 314.409851,90.681259 316.234680,90.405548 
	C316.070526,92.408913 316.015717,94.429176 315.709473,96.410583 
	C315.438263,98.165375 314.887421,99.876930 313.816223,101.796013 
	C310.021973,100.239868 306.871521,98.495293 303.659790,96.716782 
	C302.880463,95.679192 301.927155,94.409958 300.973816,93.140732 
	C299.978058,94.527344 298.979858,95.912186 297.987701,97.301353 
	C297.530273,97.941826 297.084717,98.590782 296.633820,99.235901 
	C295.795105,98.771149 294.956390,98.306396 294.123840,97.269562 
	C295.760071,92.798538 297.390137,88.899597 299.315643,84.855995 
	C301.073639,83.809082 302.536224,82.906822 303.998779,82.004570 
z"/><path fill="#F0E4D4" opacity="1.000000" stroke="none" 
	d="
M332.597565,69.879585 
	C331.401947,66.703911 329.869263,63.184818 329.128571,59.506237 
	C327.539520,51.614750 326.359161,43.640968 324.877380,35.325401 
	C324.563873,33.847366 324.384460,32.744801 324.084656,30.932156 
	C323.077667,26.781109 322.191010,23.340141 321.275330,19.511318 
	C320.033081,16.238493 318.819824,13.353523 317.537140,10.159638 
	C317.281128,9.246000 317.094513,8.641277 316.936676,7.697762 
	C316.228210,5.988294 315.490967,4.617618 314.753723,3.246938 
	C314.753723,3.246935 315.001465,2.993066 315.124634,2.864455 
	C317.970734,8.114307 321.449066,13.254786 323.236206,18.928019 
	C325.802277,27.073738 327.374298,35.563972 328.920349,43.989769 
	C330.169891,50.799824 330.731781,57.734951 331.649902,64.607758 
	C331.868042,66.240494 332.290833,67.845901 332.597565,69.879585 
z"/><path fill="#A87545" opacity="1.000000" stroke="none" 
	d="
M296.807678,99.526276 
	C297.084717,98.590782 297.530273,97.941826 297.987701,97.301353 
	C298.979858,95.912186 299.978058,94.527344 300.973816,93.140732 
	C301.927155,94.409958 302.880463,95.679192 303.659790,96.716782 
	C306.871521,98.495293 310.021973,100.239868 313.519836,102.049751 
	C315.548065,104.755486 317.228851,107.395905 318.977173,110.359558 
	C311.690338,107.060745 304.335968,103.438698 296.807678,99.526276 
z"/><path fill="#D4AA7C" opacity="1.000000" stroke="none" 
	d="
M266.429382,82.977448 
	C266.805450,81.492348 267.443451,80.230385 268.580017,79.156479 
	C270.730896,80.215439 272.383179,81.086342 274.263184,81.979736 
	C274.490875,82.002228 274.947449,82.032982 274.996643,82.354385 
	C275.703400,83.094116 276.361023,83.512444 277.356140,83.987244 
	C279.402069,85.742393 281.110474,87.441093 282.856293,89.450165 
	C282.955139,90.380661 283.016571,91.000786 283.078003,91.620911 
	C277.615753,88.814133 272.153534,86.007362 266.429382,82.977448 
z"/><path fill="#B07A4C" opacity="1.000000" stroke="none" 
	d="
M299.020203,85.000656 
	C297.390137,88.899597 295.760071,92.798538 293.951843,97.034744 
	C291.948364,96.522430 290.123047,95.672852 288.126526,94.159569 
	C288.313049,92.329231 288.670776,91.162590 289.439758,89.996750 
	C294.088135,90.807945 296.535645,88.697906 298.261871,84.998367 
	C298.683167,84.999138 298.851685,84.999901 299.020203,85.000656 
z"/><path fill="#F0E4D4" opacity="1.000000" stroke="none" 
	d="
M326.463867,108.655617 
	C326.595367,108.215485 326.884369,108.228333 327.296051,107.984680 
	C329.802124,105.491989 331.896515,103.242943 333.990875,100.993896 
	C332.225555,105.224899 330.516083,109.481384 328.613708,113.649849 
	C328.410156,114.095825 327.081940,114.028511 326.128235,113.942657 
	C326.098145,112.155930 326.215271,110.625839 326.463867,108.655617 
z"/><path fill="#E8D5C4" opacity="1.000000" stroke="none" 
	d="
M334.132538,100.833755 
	C331.896515,103.242943 329.802124,105.491989 327.424347,107.917915 
	C327.645935,105.382126 327.968353,102.615646 328.744385,99.982880 
	C329.061340,98.907486 330.360596,98.121613 331.212921,97.204025 
	C332.048920,98.063110 332.884888,98.922203 334.012512,100.014168 
	C334.304108,100.247047 334.274200,100.673615 334.132538,100.833755 
z"/><path fill="#A06A3C" opacity="1.000000" stroke="none" 
	d="
M289.028473,89.995941 
	C288.670776,91.162590 288.313049,92.329231 287.932678,93.885895 
	C287.483215,94.163445 287.056458,94.050964 286.283569,93.445160 
	C285.228363,92.670227 284.519257,92.388618 283.810181,92.107018 
	C283.810181,92.107018 283.380127,91.960342 283.229065,91.790627 
	C283.016571,91.000786 282.955139,90.380661 283.187683,89.377678 
	C284.322723,88.329681 285.163818,87.664536 286.347168,87.000793 
	C287.476349,87.344719 288.263214,87.687241 289.043152,88.357460 
	C289.033630,89.122078 289.031067,89.559013 289.028473,89.995941 
z"/><path fill="#F0E4D4" opacity="1.000000" stroke="none" 
	d="
M338.618530,93.047073 
	C338.275360,91.012871 338.247345,88.822861 338.350281,86.179459 
	C338.632050,88.114471 338.782837,90.502869 338.618530,93.047073 
z"/><path fill="#F0E4D4" opacity="1.000000" stroke="none" 
	d="
M335.480469,76.006516 
	C334.565979,74.780777 333.797211,73.213997 333.037537,71.302673 
	C333.906525,72.527245 334.766388,74.096359 335.480469,76.006516 
z"/><path fill="#F0E4D4" opacity="1.000000" stroke="none" 
	d="
M338.235321,83.771332 
	C337.426147,82.505661 336.796539,81.010933 336.228394,79.159454 
	C336.998169,80.382568 337.706512,81.962418 338.235321,83.771332 
z"/><path fill="#F0E4D4" opacity="1.000000" stroke="none" 
	d="
M337.230713,97.908112 
	C337.046295,97.075523 337.165253,96.219521 337.561096,95.182663 
	C337.736694,95.962776 337.635376,96.923744 337.230713,97.908112 
z"/><path fill="#D4AA7C" opacity="1.000000" stroke="none" 
	d="
M283.903198,92.383545 
	C284.519257,92.388618 285.228363,92.670227 286.016144,93.247055 
	C285.395294,93.248215 284.695740,92.954147 283.903198,92.383545 
z"/><path fill="#5C3A1E" opacity="1.000000" stroke="none" 
	d="
M316.907898,8.036554 
	C317.094513,8.641277 317.281128,9.246000 317.355896,10.583469 
	C317.865997,13.876896 318.487854,16.437574 319.085052,19.420395 
	C319.398621,22.559645 319.736877,25.276754 320.075134,27.993866 
	C319.888031,27.994667 319.700928,27.995468 319.042694,27.722206 
	C317.042206,24.968344 315.512817,22.488544 313.951599,19.634094 
	C312.514435,17.527853 311.287872,14.535146 309.669617,14.305805 
	C305.170410,13.668172 298.745300,17.852713 297.609070,20.995815 
	C296.145447,21.366438 295.030243,21.695736 293.915009,22.025032 
	C296.020599,17.773844 298.126221,13.522656 300.839722,9.064041 
	C301.992767,7.945632 302.537872,7.034650 303.082977,6.123667 
	C303.082977,6.123665 303.044495,6.033459 303.473083,6.049147 
	C304.848236,5.859303 305.973724,5.912735 306.710693,5.403718 
	C310.022461,3.116426 312.673218,3.268136 314.820374,6.978519 
	C315.147858,7.544368 316.194122,7.694273 316.907898,8.036554 
z"/><path fill="#A06A3C" opacity="1.000000" stroke="none" 
	d="
M281.171143,46.033772 
	C283.831360,40.395279 286.491608,34.756783 289.486023,28.972427 
	C289.820221,28.826572 289.990082,29.007095 290.106934,29.262833 
	C290.490845,30.011848 290.757904,30.505127 290.773315,31.162529 
	C290.350739,31.887131 290.179779,32.447613 289.869904,33.326881 
	C289.481781,34.758720 289.232605,35.871777 288.673828,37.149506 
	C282.387512,42.889034 285.028564,49.758514 286.200378,56.132832 
	C287.437592,57.396240 288.935150,58.925480 290.432709,60.454716 
	C289.746796,60.572262 289.060913,60.689804 288.375000,60.807350 
	C287.585449,63.131783 286.494232,65.405449 286.092102,67.795074 
	C285.698517,70.133736 286.007233,72.590576 286.038879,75.336624 
	C287.048920,76.449181 288.027771,77.220642 289.003296,77.996048 
	C289.000000,78.000000 289.008270,77.994064 289.001923,78.353439 
	C287.999725,80.474663 287.003876,82.236519 285.738770,83.807991 
	C284.324158,82.410393 283.178802,81.203171 282.076294,79.606964 
	C282.557770,76.181984 283.938660,72.911629 283.253113,70.155205 
	C281.411224,62.749474 279.592072,55.535992 282.383301,47.990417 
	C282.546906,47.548195 281.600800,46.695461 281.171143,46.033772 
z"/><path fill="#B07A4C" opacity="1.000000" stroke="none" 
	d="
M313.983459,20.008743 
	C315.512817,22.488544 317.042206,24.968344 318.762024,27.723598 
	C318.658234,28.464638 318.364014,28.930222 317.700470,29.731188 
	C315.598541,31.369394 313.865906,32.672218 311.613495,34.365868 
	C310.863007,29.627237 309.505737,26.458147 304.355316,27.760551 
	C303.443604,27.991102 302.128723,26.627115 300.935303,25.643831 
	C299.559540,25.415352 298.143707,25.270605 296.959412,25.726816 
	C294.569702,26.647369 292.305847,27.894608 289.990082,29.007092 
	C289.990082,29.007095 289.820221,28.826572 289.736908,28.731369 
	C290.892517,26.559959 292.131409,24.483757 293.642670,22.216293 
	C295.030243,21.695736 296.145447,21.366438 297.921295,21.135397 
	C299.415527,20.885151 300.249390,20.537247 301.082703,20.188021 
	C302.544067,19.575598 305.018982,18.128769 305.307617,18.479856 
	C307.875031,21.602608 311.060333,19.887167 313.983459,20.008743 
M312.100128,23.734549 
	C312.045013,23.232971 311.989899,22.731392 311.934753,22.229816 
	C311.485809,22.345243 311.036896,22.460672 310.587952,22.576097 
	C310.891724,23.004469 311.195526,23.432840 312.100128,23.734549 
z"/><path fill="#5C3A1E" opacity="1.000000" stroke="none" 
	d="
M280.977264,46.346695 
	C281.600800,46.695461 282.546906,47.548195 282.383301,47.990417 
	C279.592072,55.535992 281.411224,62.749474 283.253113,70.155205 
	C283.938660,72.911629 282.557770,76.181984 281.718872,79.604340 
	C280.713531,79.786331 279.566620,79.520981 279.581787,79.386421 
	C280.144684,74.385147 277.109222,71.184975 274.008148,67.609985 
	C273.967316,66.424667 273.931641,65.634674 273.895966,64.844688 
	C276.191803,58.783001 278.487610,52.721310 280.977264,46.346695 
z"/><path fill="#A87545" opacity="1.000000" stroke="none" 
	d="
M273.528564,64.936226 
	C273.931641,65.634674 273.967316,66.424667 273.749695,67.829391 
	C273.534576,70.200012 274.115753,72.182800 273.496796,73.664101 
	C272.243347,76.663834 272.421967,79.284554 274.035461,81.957245 
	C272.383179,81.086342 270.730896,80.215439 268.866577,79.030731 
	C270.156738,74.153877 271.658966,69.590820 273.528564,64.936226 
z"/><path fill="#B8864E" opacity="1.000000" stroke="none" 
	d="
M316.936707,7.697762 
	C316.194122,7.694273 315.147858,7.544368 314.820374,6.978519 
	C312.673218,3.268136 310.022461,3.116426 306.710693,5.403718 
	C305.973724,5.912735 304.848236,5.859303 303.513733,6.076546 
	C305.998352,2.343670 309.588074,1.112164 314.406311,3.107467 
	C315.490967,4.617618 316.228210,5.988294 316.936707,7.697762 
z"/><path fill="#B8864E" opacity="1.000000" stroke="none" 
	d="
M302.775879,6.189609 
	C302.537872,7.034650 301.992767,7.945632 301.090759,8.821367 
	C301.312195,7.942596 301.890472,7.099072 302.775879,6.189609 
z"/><path fill="#A87545" opacity="1.000000" stroke="none" 
	d="
M301.000000,25.999470 
	C302.128723,26.627115 303.443604,27.991102 304.355316,27.760551 
	C309.505737,26.458147 310.863007,29.627237 311.613495,34.365868 
	C313.865906,32.672218 315.598541,31.369394 317.686768,30.022018 
	C319.026031,32.729446 320.009735,35.481426 320.678101,38.775894 
	C319.704376,41.859921 319.045929,44.401459 318.180176,47.743160 
	C317.606110,48.052891 315.801880,49.026325 313.665009,49.816223 
	C312.886993,48.130138 312.681152,46.494946 311.939850,45.156303 
	C310.844727,43.178799 309.589417,40.048820 308.016571,39.794422 
	C301.598785,38.756371 302.085541,32.640553 299.316376,29.019503 
	C299.037720,28.655106 300.399536,27.036190 301.000000,25.999470 
z"/><path fill="#A06A3C" opacity="1.000000" stroke="none" 
	d="
M299.315643,84.855995 
	C298.851685,84.999901 298.683167,84.999138 298.255432,84.623840 
	C297.990509,83.500046 297.984863,82.750778 298.230347,81.835785 
	C298.647858,81.107201 298.814270,80.544350 299.017517,79.642502 
	C299.247864,78.521805 299.441437,77.740105 299.634979,76.958412 
	C295.253113,77.340630 296.439209,72.455269 294.066437,70.640427 
	C296.371887,69.789734 298.593964,68.994461 300.851044,68.878128 
	C304.555817,68.687157 308.283295,68.936775 312.006714,69.006424 
	C312.012238,69.012238 312.030090,69.029129 312.030090,69.029129 
	C312.344391,72.871574 311.960571,76.169731 307.470917,77.694557 
	C306.147614,78.143974 305.341400,80.115875 304.148499,81.697311 
	C302.536224,82.906822 301.073639,83.809082 299.315643,84.855995 
z"/><path fill="#B07A4C" opacity="1.000000" stroke="none" 
	d="
M313.997681,49.999760 
	C315.801880,49.026325 317.606110,48.052891 318.180176,47.743160 
	C319.045929,44.401459 319.704376,41.859921 320.682129,39.158939 
	C321.333618,45.354340 321.665710,51.709183 321.594360,58.531845 
	C319.128082,59.333988 317.065247,59.668312 314.995850,59.648415 
	C314.326202,58.529671 313.663086,57.765156 312.998413,56.751488 
	C312.996796,56.502338 312.995117,56.004028 312.997131,55.628738 
	C312.999847,54.503063 313.000549,53.752678 313.263367,52.796089 
	C313.682892,51.726513 313.840271,50.863136 313.997681,49.999760 
z"/><path fill="#A06A3C" opacity="1.000000" stroke="none" 
	d="
M315.002441,60.002640 
	C317.065247,59.668312 319.128082,59.333988 321.593018,58.997833 
	C321.766174,60.448002 321.108124,61.987705 321.383850,63.336555 
	C322.472076,68.660645 320.072388,69.530487 315.588898,68.415192 
	C314.737701,68.203438 313.699219,68.744400 312.388611,68.983597 
	C312.030090,69.029129 312.012238,69.012238 312.006683,68.632339 
	C312.004578,67.504616 312.008026,66.756790 312.256165,65.840408 
	C312.669373,65.114883 312.837860,64.557899 313.264130,63.806381 
	C314.015442,62.408779 314.508942,61.205711 315.002441,60.002640 
z"/><path fill="#A87545" opacity="1.000000" stroke="none" 
	d="
M320.332733,28.184406 
	C319.736877,25.276754 319.398621,22.559645 319.352142,19.548243 
	C320.197388,19.469023 320.750854,19.684097 321.304352,19.899170 
	C322.191010,23.340141 323.077667,26.781109 323.956543,30.616768 
	C322.829315,30.132622 321.709808,29.253786 320.332733,28.184406 
z"/><path fill="#6B4528" opacity="1.000000" stroke="none" 
	d="
M332.412933,78.857552 
	C333.320099,83.331902 334.054443,87.451485 334.901581,92.203880 
	C331.837738,91.161278 329.324402,91.522644 331.222687,87.229874 
	C332.166534,85.095551 329.793640,81.548386 329.078003,78.602257 
	C328.750610,77.254402 328.801941,75.814560 328.681488,74.416435 
	C329.193878,74.356552 329.706268,74.296677 330.218628,74.236801 
	C330.892456,75.658791 331.566284,77.080780 332.412933,78.857552 
z"/><path fill="#B8864E" opacity="1.000000" stroke="none" 
	d="
M321.275330,19.511316 
	C320.750854,19.684097 320.197388,19.469023 319.376801,19.126102 
	C318.487854,16.437574 317.865997,13.876896 317.425354,10.892385 
	C318.819824,13.353523 320.033081,16.238493 321.275330,19.511316 
z"/><path fill="#6B4528" opacity="1.000000" stroke="none" 
	d="
M274.263184,81.979736 
	C272.421967,79.284554 272.243347,76.663834 273.496796,73.664101 
	C274.115753,72.182800 273.534576,70.200012 273.754883,68.224716 
	C277.109222,71.184975 280.144684,74.385147 279.581787,79.386421 
	C279.566620,79.520981 280.713531,79.786331 281.675995,79.993317 
	C283.178802,81.203171 284.324158,82.410393 285.735168,84.183174 
	C286.002197,85.498955 286.003540,86.249168 286.004883,86.999390 
	C285.163818,87.664536 284.322723,88.329681 283.150269,89.067307 
	C281.110474,87.441093 279.402069,85.742393 277.307861,83.670891 
	C276.263885,82.876381 275.605682,82.454681 274.947449,82.032982 
	C274.947449,82.032982 274.490875,82.002228 274.263184,81.979736 
z"/><path fill="#A06A3C" opacity="1.000000" stroke="none" 
	d="
M274.996643,82.354385 
	C275.605682,82.454681 276.263885,82.876381 276.970367,83.614426 
	C276.361023,83.512444 275.703400,83.094116 274.996643,82.354385 
z"/><path fill="#B8864E" opacity="1.000000" stroke="none" 
	d="
M293.998779,71.000809 
	C296.439209,72.455269 295.253113,77.340630 299.634979,76.958412 
	C299.441437,77.740105 299.247864,78.521805 298.726929,79.677856 
	C298.259430,80.701988 298.119324,81.351753 297.979218,82.001518 
	C297.984863,82.750778 297.990509,83.500046 298.002625,84.623825 
	C296.535645,88.697906 294.088135,90.807945 289.439758,89.996750 
	C289.031067,89.559013 289.033630,89.122078 289.424194,88.258553 
	C291.330566,84.406685 292.685974,80.994736 289.008270,77.994064 
	C289.008270,77.994064 289.000000,78.000000 289.002441,77.622437 
	C289.006500,76.497292 289.008118,75.749718 289.234985,74.835617 
	C288.418671,70.571175 289.180817,69.955185 293.998779,71.000809 
z"/><path fill="#B07A4C" opacity="1.000000" stroke="none" 
	d="
M289.001923,78.353439 
	C292.685974,80.994736 291.330566,84.406685 289.431122,87.930862 
	C288.263214,87.687241 287.476349,87.344719 286.347168,87.000793 
	C286.003540,86.249168 286.002197,85.498955 286.004456,84.373550 
	C287.003876,82.236519 287.999725,80.474663 289.001923,78.353439 
z"/><path fill="#A06A3C" opacity="1.000000" stroke="none" 
	d="
M313.951599,19.634090 
	C311.060333,19.887167 307.875031,21.602608 305.307617,18.479856 
	C305.018982,18.128769 302.544067,19.575598 301.082703,20.188021 
	C300.249390,20.537247 299.415527,20.885151 298.269714,21.094072 
	C298.745300,17.852713 305.170410,13.668172 309.669617,14.305805 
	C311.287872,14.535146 312.514435,17.527853 313.951599,19.634090 
z"/><path fill="#B8864E" opacity="1.000000" stroke="none" 
	d="
M313.006348,64.000916 
	C312.837860,64.557899 312.669373,65.114883 311.839172,65.836365 
	C309.544952,65.844124 307.355804,66.299637 306.383911,65.416138 
	C303.440186,62.740128 300.875763,63.775658 297.870300,65.032417 
	C296.776062,65.489983 294.151764,64.955521 293.936646,64.306519 
	C293.453156,62.847725 293.579926,60.787228 294.309021,59.427975 
	C295.201630,57.763859 296.813599,56.362862 298.379272,55.206631 
	C302.331055,52.288315 300.993652,48.576683 298.796204,46.152012 
	C296.541138,43.663734 295.058136,37.967289 289.254517,41.979996 
	C289.142120,39.909149 289.062775,38.446995 288.983429,36.984833 
	C289.232605,35.871777 289.481781,34.758720 290.160950,33.293781 
	C290.735596,32.294071 290.880280,31.646244 291.024963,30.998411 
	C290.757904,30.505127 290.490845,30.011848 290.106934,29.262829 
	C292.305847,27.894608 294.569702,26.647369 296.959412,25.726816 
	C298.143707,25.270605 299.559540,25.415352 300.935303,25.643841 
	C300.399536,27.036190 299.037720,28.655106 299.316376,29.019503 
	C302.085541,32.640553 301.598785,38.756371 308.016571,39.794422 
	C309.589417,40.048820 310.844727,43.178799 311.939850,45.156303 
	C312.681152,46.494946 312.886993,48.130138 313.665009,49.816223 
	C313.840271,50.863136 313.682892,51.726513 312.928833,52.844681 
	C312.553131,54.067657 312.774139,55.035843 312.995117,56.004028 
	C312.995117,56.004028 312.996796,56.502338 312.997375,57.139610 
	C313.000732,59.851562 313.003540,61.926239 313.006348,64.000916 
z"/><path fill="#A87545" opacity="1.000000" stroke="none" 
	d="
M288.673828,37.149509 
	C289.062775,38.446995 289.142120,39.909149 289.254517,41.979996 
	C295.058136,37.967289 296.541138,43.663734 298.796204,46.152012 
	C300.993652,48.576683 302.331055,52.288315 298.379272,55.206631 
	C296.813599,56.362862 295.201630,57.763859 294.309021,59.427975 
	C293.579926,60.787228 293.453156,62.847725 293.936646,64.306519 
	C294.151764,64.955521 296.776062,65.489983 297.870300,65.032417 
	C300.875763,63.775658 303.440186,62.740128 306.383911,65.416138 
	C307.355804,66.299637 309.544952,65.844124 311.594482,66.004913 
	C312.008026,66.756790 312.004578,67.504616 312.001160,68.626526 
	C308.283295,68.936775 304.555817,68.687157 300.851044,68.878128 
	C298.593964,68.994461 296.371887,69.789734 294.066437,70.640427 
	C289.180817,69.955185 288.418671,70.571175 288.859436,74.834465 
	C287.508301,74.998405 286.757996,74.996971 286.007660,74.995537 
	C286.007233,72.590576 285.698517,70.133736 286.092102,67.795074 
	C286.494232,65.405449 287.585449,63.131783 288.375000,60.807350 
	C289.060913,60.689804 289.746796,60.572262 290.432709,60.454716 
	C288.935150,58.925480 287.437592,57.396240 286.200378,56.132832 
	C285.028564,49.758514 282.387512,42.889034 288.673828,37.149509 
z"/><path fill="#B07A4C" opacity="1.000000" stroke="none" 
	d="
M286.038879,75.336624 
	C286.757996,74.996971 287.508301,74.998405 288.634216,75.000992 
	C289.008118,75.749718 289.006500,76.497292 289.005737,77.618484 
	C288.027771,77.220642 287.048920,76.449181 286.038879,75.336624 
z"/><path fill="#B07A4C" opacity="1.000000" stroke="none" 
	d="
M290.773315,31.162533 
	C290.880280,31.646244 290.735596,32.294071 290.299866,32.974998 
	C290.179779,32.447613 290.350739,31.887131 290.773315,31.162533 
z"/><path fill="#A06A3C" opacity="1.000000" stroke="none" 
	d="
M311.799713,23.797882 
	C311.195526,23.432840 310.891724,23.004469 310.587952,22.576099 
	C311.036896,22.460672 311.485809,22.345243 311.934753,22.229815 
	C311.989899,22.731392 312.045013,23.232971 311.799713,23.797882 
z"/><path fill="#B07A4C" opacity="1.000000" stroke="none" 
	d="
M298.230347,81.835785 
	C298.119324,81.351753 298.259430,80.701988 298.690094,80.016861 
	C298.814270,80.544350 298.647858,81.107201 298.230347,81.835785 
z"/><path fill="#A87545" opacity="1.000000" stroke="none" 
	d="
M313.264160,63.806381 
	C313.003540,61.926239 313.000732,59.851562 312.998962,57.388763 
	C313.663086,57.765156 314.326202,58.529671 314.995850,59.648415 
	C314.508942,61.205711 314.015442,62.408779 313.264160,63.806381 
z"/><path fill="#A87545" opacity="1.000000" stroke="none" 
	d="
M312.997131,55.628738 
	C312.774139,55.035843 312.553131,54.067657 312.666687,53.050880 
	C313.000549,53.752678 312.999847,54.503063 312.997131,55.628738 
z"/>
</svg>