<svg xmlns="http://www.w3.org/2000/svg" viewBox="138 -5 108 130" width="108" height="130">
<path fill="#5C3A1E" opacity="1.000000" stroke="none" 
	d="
M186.163132,38.253025 
	C186.302734,38.410736 186.442352,38.568443 186.684540,39.382843 
	C188.804367,43.608284 190.812424,47.182247 192.841049,50.744503 
	C195.577103,55.549038 198.328979,60.344563 200.891327,65.176308 
	C200.832520,65.394943 200.956467,65.581223 201.338120,65.971146 
	C202.105225,67.124466 202.614624,68.074150 202.871414,69.223038 
	C203.699631,71.017967 204.780472,72.613708 205.895599,74.601028 
	C205.995590,75.775459 206.061279,76.558296 205.960815,77.304977 
	C205.903900,77.369873 206.013123,77.470940 206.350830,77.770859 
	C206.826141,78.288971 207.072937,78.608231 207.236603,79.304214 
	C206.274597,81.217987 205.573395,82.897621 204.478699,84.261421 
	C202.406158,86.843468 200.107758,89.244240 197.903198,91.720322 
	C197.325211,92.298889 196.747238,92.877457 195.803223,93.622017 
	C195.437195,93.788010 195.108536,93.727837 195.015167,93.379417 
	C192.282333,89.359909 193.794708,85.694054 194.957275,81.567505 
	C194.640823,75.057167 194.827759,68.914688 193.785172,62.988518 
	C193.056595,58.847065 190.645981,55.001526 188.875977,50.802582 
	C188.562027,50.306034 188.297180,50.116955 187.940109,49.693794 
	C187.285645,48.910751 186.661850,48.448021 186.001907,47.630329 
	C184.008774,44.503208 182.051773,41.731049 180.083862,38.716728 
	C180.072952,38.474575 180.026871,37.991970 179.984589,37.635887 
	C178.640137,36.506870 177.337952,35.733936 176.027878,34.965149 
	C176.019974,34.969292 176.041763,34.954159 176.008545,34.615944 
	C174.993896,32.842957 174.012482,31.408186 172.975327,29.649326 
	C170.631439,28.557993 168.394119,27.448875 166.043854,27.099325 
	C161.970764,26.493547 158.454071,27.706100 156.018784,31.363451 
	C155.094299,32.751850 153.850189,33.927406 152.728134,34.752899 
	C153.105362,30.534225 152.920975,26.579998 154.029083,23.029116 
	C156.325409,15.670626 158.097778,12.953039 164.795486,16.990826 
	C168.645859,19.312065 171.712509,22.917116 175.206039,25.856178 
	C176.276398,26.756651 177.592453,27.365061 178.795990,28.107218 
	C179.060165,28.335602 179.324356,28.563986 179.708405,29.347450 
	C181.284866,31.684126 182.741470,33.465725 184.198059,35.247322 
	C184.332611,35.402672 184.467163,35.558022 184.660706,36.269844 
	C185.200836,37.301888 185.681992,37.777458 186.163132,38.253025 
z"/><path fill="#B07A4C" opacity="1.000000" stroke="none" 
	d="
M194.935638,82.027725 
	C193.794708,85.694054 192.282333,89.359909 194.751129,93.644897 
	C194.458694,94.971085 194.336899,95.683357 194.215088,96.395630 
	C194.005722,96.865303 193.796356,97.334976 193.002197,97.941132 
	C190.353165,97.725510 188.288940,97.373390 186.224701,97.021278 
	C186.316727,96.507568 186.408768,95.993858 186.500809,95.480148 
	C187.526306,95.480148 188.551804,95.480148 188.996689,95.480148 
	C192.438934,89.582924 183.969864,86.034706 186.858170,80.402321 
	C185.205887,79.695503 183.602951,78.697975 181.880325,78.405533 
	C181.029617,78.261116 179.958038,79.417709 179.029449,79.619614 
	C179.905304,77.241829 179.884933,75.716545 177.065247,76.012642 
	C174.371078,76.295555 171.686401,76.668869 168.749863,76.998192 
	C168.502167,76.993950 168.006744,76.987640 167.963531,76.622238 
	C164.670929,69.372833 161.421524,62.488831 157.993774,55.226971 
	C156.898056,55.164127 155.450562,55.081104 153.713440,54.717583 
	C153.299774,51.627148 153.175735,48.817207 153.373688,45.821140 
	C154.838623,42.883121 155.585022,39.867443 157.204712,37.432705 
	C160.896805,31.882702 167.244186,31.401045 173.031067,29.973415 
	C174.012482,31.408186 174.993896,32.842957 175.656189,34.667534 
	C174.775070,36.161545 174.168930,37.245869 173.660873,38.374367 
	C172.779312,40.332615 171.958420,42.318180 171.112091,44.292290 
	C170.611374,44.115143 170.110672,43.937996 169.609955,43.760853 
	C169.609955,43.055771 169.901749,41.971867 169.560898,41.709312 
	C167.819153,40.367702 166.037964,38.747456 164.015091,38.236824 
	C162.969879,37.972988 160.630753,39.532597 160.188477,40.746471 
	C158.119553,46.424614 160.865646,51.837139 161.814392,57.338100 
	C161.928574,57.999989 163.233719,58.456470 164.145996,59.319603 
	C169.826675,62.539707 166.455536,68.473091 168.772568,72.946953 
	C174.210876,71.287109 179.625122,69.634621 185.407333,67.993858 
	C189.139160,69.753143 193.020828,70.820641 191.578796,76.358559 
	C191.230225,77.697197 190.454514,82.180359 194.935638,82.027725 
M187.968857,74.107895 
	C187.534088,73.067230 187.099335,72.026566 186.664566,70.985901 
	C186.092926,71.462379 185.521286,71.938850 184.949646,72.415329 
	C185.918350,73.216042 186.887039,74.016747 187.968857,74.107895 
z"/><path fill="#E8D5C4" opacity="1.000000" stroke="none" 
	d="
M178.825974,27.756977 
	C177.592453,27.365061 176.276398,26.756651 175.206039,25.856178 
	C171.712509,22.917116 168.645859,19.312065 164.795486,16.990826 
	C158.097778,12.953039 156.325409,15.670626 154.029083,23.029116 
	C152.920975,26.579998 153.105362,30.534225 152.715271,35.097137 
	C152.397629,39.208260 152.069214,42.528061 151.473755,46.128868 
	C150.783783,48.463234 149.917282,50.537769 150.014114,52.566319 
	C150.450653,61.711407 151.160202,70.843468 151.537079,80.268387 
	C150.763550,82.798111 149.687256,85.063110 149.783859,87.276924 
	C150.096573,94.443008 143.071884,103.639053 155.094421,107.803528 
	C155.473511,107.934837 155.673706,108.582611 155.955368,109.344185 
	C156.596481,110.511971 157.239532,111.325188 157.905273,112.351746 
	C157.927994,112.565086 158.021027,112.983978 158.081726,113.261932 
	C158.431396,114.029686 158.720367,114.519485 159.125397,115.341064 
	C160.487152,116.443497 161.732834,117.214142 162.978516,117.984787 
	C160.706085,120.362038 158.831238,119.857750 156.791809,117.481918 
	C154.443481,114.746254 151.591614,112.434250 149.321838,109.642761 
	C147.803604,107.775551 145.912186,105.381004 145.938217,103.243774 
	C146.018326,96.669250 146.898407,90.100761 147.556229,83.538811 
	C147.818100,80.926636 148.995407,78.226120 148.591751,75.756073 
	C145.587402,57.371761 148.919250,39.366844 151.820343,21.397943 
	C153.281693,12.346546 160.503296,9.869349 167.608444,15.677102 
	C171.771820,19.080250 175.133606,23.464062 178.825974,27.756977 
z"/><path fill="#5C3A1E" opacity="1.000000" stroke="none" 
	d="
M158.021027,112.983978 
	C158.021027,112.983978 157.927994,112.565086 158.058563,112.045609 
	C158.454727,110.681656 158.720322,109.837181 159.235413,108.986359 
	C159.484924,108.980011 159.983948,108.966957 160.373383,108.973236 
	C163.504288,107.326073 168.122726,108.780022 168.995667,103.621536 
	C170.237457,100.338112 168.703186,95.226585 175.148682,96.470757 
	C174.419998,94.594360 173.859116,93.150063 173.170532,91.376953 
	C174.582413,90.868988 175.795044,90.432701 177.323273,90.028793 
	C178.410583,90.396133 179.182312,90.731110 180.162674,91.328491 
	C183.163971,95.311256 185.956604,99.031624 188.749252,102.751991 
	C188.436584,103.156883 188.123917,103.561775 187.189331,104.010994 
	C184.678619,102.522209 182.789841,100.989105 180.611145,99.220695 
	C179.474182,103.301315 179.063507,108.205338 173.455200,106.546852 
	C171.222092,110.075516 169.091736,113.441811 166.961395,116.808098 
	C165.873856,117.220528 164.786331,117.632950 163.338654,118.015076 
	C161.732834,117.214142 160.487152,116.443497 159.474991,115.338539 
	C160.290588,114.633614 160.872650,114.263000 161.454712,113.892380 
	C160.310150,113.589584 159.165588,113.286781 158.021027,112.983978 
z"/><path fill="#A87545" opacity="1.000000" stroke="none" 
	d="
M189.028809,102.587921 
	C185.956604,99.031624 183.163971,95.311256 180.206039,90.984192 
	C180.693939,87.592125 181.998611,84.711647 177.960571,83.121590 
	C177.328125,82.872543 177.304871,81.076416 177.331116,79.994431 
	C178.103668,79.990677 178.545029,79.988152 178.986404,79.985626 
	C179.958038,79.417709 181.029617,78.261116 181.880325,78.405533 
	C183.602951,78.697975 185.205887,79.695503 186.858170,80.402321 
	C183.969864,86.034706 192.438934,89.582924 188.996689,95.480148 
	C188.551804,95.480148 187.526306,95.480148 186.500809,95.480148 
	C186.408768,95.993858 186.316727,96.507568 186.224701,97.021278 
	C188.288940,97.373390 190.353165,97.725510 192.771362,98.062714 
	C191.852997,99.506485 190.580673,100.965172 189.028809,102.587921 
z"/><path fill="#E8D5C4" opacity="1.000000" stroke="none" 
	d="
M201.074081,65.143951 
	C198.328979,60.344563 195.577103,55.549038 192.841049,50.744503 
	C190.812424,47.182247 188.804367,43.608284 186.803604,39.675488 
	C187.389206,39.575680 188.225586,39.682144 188.488373,40.127247 
	C194.945267,51.064140 201.351898,62.030788 207.740387,73.007912 
	C209.237152,75.579765 210.842239,78.122910 211.977646,80.853813 
	C212.432053,81.946716 211.752182,83.511185 211.281403,84.509659 
	C209.756027,82.414696 208.537888,80.671089 207.319733,78.927490 
	C207.072937,78.608231 206.826141,78.288971 206.345703,77.715363 
	C206.112061,77.461021 206.126984,77.341133 206.126984,77.341133 
	C206.061279,76.558296 205.995590,75.775459 205.914047,74.244278 
	C204.973480,72.005241 204.048737,70.514542 203.124023,69.023834 
	C202.614624,68.074150 202.105225,67.124466 201.333618,65.816383 
	C201.071411,65.457993 201.074081,65.143951 201.074081,65.143951 
z"/><path fill="#A87545" opacity="1.000000" stroke="none" 
	d="
M167.322479,116.795715 
	C169.091736,113.441811 171.222092,110.075516 173.455200,106.546852 
	C179.063507,108.205338 179.474182,103.301315 180.611145,99.220695 
	C182.789841,100.989105 184.678619,102.522209 186.954620,104.116074 
	C180.789078,108.379005 174.236328,112.581169 167.322479,116.795715 
z"/><path fill="#D4AA7C" opacity="1.000000" stroke="none" 
	d="
M207.236603,79.304214 
	C208.537888,80.671089 209.756027,82.414696 210.976776,84.510956 
	C206.827866,87.027367 202.676392,89.191116 198.214050,91.537598 
	C200.107758,89.244240 202.406158,86.843468 204.478699,84.261421 
	C205.573395,82.897621 206.274597,81.217987 207.236603,79.304214 
z"/><path fill="#E8D5C4" opacity="1.000000" stroke="none" 
	d="
M184.311829,34.928619 
	C182.741470,33.465725 181.284866,31.684126 179.852570,29.567230 
	C181.393112,31.024595 182.909348,32.817253 184.311829,34.928619 
z"/><path fill="#D4AA7C" opacity="1.000000" stroke="none" 
	d="
M194.491669,96.260849 
	C194.336899,95.683357 194.458694,94.971085 194.844513,93.993317 
	C195.108536,93.727837 195.437195,93.788010 195.593658,93.846588 
	C195.422821,94.645462 195.095520,95.385765 194.491669,96.260849 
z"/><path fill="#E8D5C4" opacity="1.000000" stroke="none" 
	d="
M186.283432,37.976166 
	C185.681992,37.777458 185.200836,37.301888 184.774002,36.556549 
	C185.353455,36.757626 185.878586,37.228470 186.283432,37.976166 
z"/><path fill="#A87545" opacity="1.000000" stroke="none" 
	d="
M163.986862,59.008156 
	C163.233719,58.456470 161.928574,57.999989 161.814392,57.338100 
	C160.865646,51.837139 158.119553,46.424614 160.188477,40.746471 
	C160.630753,39.532597 162.969879,37.972988 164.015091,38.236824 
	C166.037964,38.747456 167.819153,40.367702 169.560898,41.709312 
	C169.901749,41.971867 169.609955,43.055771 169.609955,43.760853 
	C170.110672,43.937996 170.611374,44.115143 171.112091,44.292290 
	C171.958420,42.318180 172.779312,40.332615 173.660873,38.374367 
	C174.168930,37.245869 174.775070,36.161545 175.689407,35.005749 
	C176.041763,34.954159 176.019974,34.969292 176.052551,35.327396 
	C177.399048,36.454323 178.712967,37.223148 180.026871,37.991970 
	C180.026871,37.991970 180.072952,38.474575 179.818024,38.911385 
	C180.423264,40.959728 181.047897,42.766823 182.190857,44.143593 
	C184.878250,47.380749 184.640457,49.363930 180.649704,50.567833 
	C177.100800,51.638443 175.606049,53.315693 176.932159,57.023827 
	C177.249161,57.910191 176.993500,59.001358 176.642242,59.957657 
	C175.532791,59.146923 174.749863,58.405525 174.038940,57.600552 
	C172.745926,56.136501 171.495651,54.634686 170.227554,53.148628 
	C168.147324,55.101807 166.067093,57.054981 163.986862,59.008156 
z"/><path fill="#B07A4C" opacity="1.000000" stroke="none" 
	d="
M177.001221,59.998325 
	C176.993500,59.001358 177.249161,57.910191 176.932159,57.023827 
	C175.606049,53.315693 177.100800,51.638443 180.649704,50.567833 
	C184.640457,49.363930 184.878250,47.380749 182.190857,44.143593 
	C181.047897,42.766823 180.423264,40.959728 179.828934,39.153542 
	C182.051773,41.731049 184.008774,44.503208 185.803650,47.804626 
	C186.417938,48.893955 187.194351,49.454029 187.970779,50.014107 
	C188.297180,50.116955 188.562027,50.306034 188.885117,51.185913 
	C188.758224,54.089859 188.824524,56.481190 188.183090,58.664608 
	C187.434128,61.214138 186.067307,63.582165 184.608658,66.016190 
	C181.832916,64.001732 179.417068,62.000031 177.001221,59.998325 
z"/><path fill="#A06A3C" opacity="1.000000" stroke="none" 
	d="
M184.968567,66.028938 
	C186.067307,63.582165 187.434128,61.214138 188.183090,58.664608 
	C188.824524,56.481190 188.758224,54.089859 188.995789,51.407150 
	C190.645981,55.001526 193.056595,58.847065 193.785172,62.988518 
	C194.827759,68.914688 194.640823,75.057167 194.957275,81.567505 
	C190.454514,82.180359 191.230225,77.697197 191.578796,76.358559 
	C193.020828,70.820641 189.139160,69.753143 185.391281,67.668488 
	C184.994354,66.897232 184.981461,66.463089 184.968567,66.028938 
z"/><path fill="#A06A3C" opacity="1.000000" stroke="none" 
	d="
M151.740799,45.847862 
	C152.069214,42.528061 152.397629,39.208260 152.738892,35.544220 
	C153.850189,33.927406 155.094299,32.751850 156.018784,31.363451 
	C158.454071,27.706100 161.970764,26.493547 166.043854,27.099325 
	C168.394119,27.448875 170.631439,28.557993 172.975327,29.649324 
	C167.244186,31.401045 160.896805,31.882702 157.204712,37.432705 
	C155.585022,39.867443 154.838623,42.883121 153.044250,45.792694 
	C152.175476,45.916206 151.958130,45.882034 151.740799,45.847862 
z"/><path fill="#D4AA7C" opacity="1.000000" stroke="none" 
	d="
M202.871399,69.223038 
	C204.048737,70.514542 204.973480,72.005241 205.879761,73.852692 
	C204.780472,72.613708 203.699631,71.017967 202.871399,69.223038 
z"/><path fill="#B07A4C" opacity="1.000000" stroke="none" 
	d="
M179.984589,37.635887 
	C178.712967,37.223148 177.399048,36.454323 176.060455,35.323254 
	C177.337952,35.733936 178.640137,36.506870 179.984589,37.635887 
z"/><path fill="#A06A3C" opacity="1.000000" stroke="none" 
	d="
M187.940109,49.693794 
	C187.194351,49.454029 186.417938,48.893955 185.839783,48.159584 
	C186.661850,48.448021 187.285645,48.910751 187.940109,49.693794 
z"/><path fill="#D4AA7C" opacity="1.000000" stroke="none" 
	d="
M205.960831,77.304977 
	C206.126984,77.341133 206.112061,77.461021 206.117203,77.516510 
	C206.013123,77.470940 205.903900,77.369873 205.960831,77.304977 
z"/><path fill="#D4AA7C" opacity="1.000000" stroke="none" 
	d="
M200.891327,65.176308 
	C201.074081,65.143951 201.071411,65.457993 201.075912,65.612747 
	C200.956467,65.581223 200.832520,65.394943 200.891327,65.176308 
z"/><path fill="#6B4528" opacity="1.000000" stroke="none" 
	d="
M151.473755,46.128868 
	C151.958130,45.882034 152.175476,45.916206 152.722260,45.978825 
	C153.175735,48.817207 153.299774,51.627148 153.673798,55.088223 
	C152.869598,62.517136 154.938080,68.830093 158.670044,74.029182 
	C160.094482,76.013588 163.834473,79.446945 168.006744,76.987640 
	C168.006744,76.987640 168.502167,76.993950 168.783295,77.338562 
	C170.707184,79.124664 172.349930,80.566154 174.254456,82.212082 
	C174.679733,83.276222 174.843216,84.135933 175.005646,85.345001 
	C175.668823,86.796898 176.333069,87.899445 176.999756,89.250595 
	C177.002197,89.499207 177.007675,89.996422 177.007675,89.996422 
	C175.795044,90.432701 174.582413,90.868988 173.170532,91.376953 
	C173.859116,93.150063 174.419998,94.594360 175.148682,96.470757 
	C168.703186,95.226585 170.237457,100.338112 168.693985,103.463051 
	C167.774597,102.401161 167.168625,101.105583 166.562637,99.809998 
	C166.129044,100.324852 165.695435,100.839699 165.261841,101.354553 
	C163.836197,102.241295 162.410553,103.128029 161.029694,103.630219 
	C161.666870,100.202934 163.707520,96.372505 162.565613,94.273087 
	C159.744446,89.086227 155.464813,84.692642 151.771362,79.980225 
	C151.160202,70.843468 150.450653,61.711407 150.014114,52.566319 
	C149.917282,50.537769 150.783783,48.463234 151.473755,46.128868 
z"/><path fill="#B8864E" opacity="1.000000" stroke="none" 
	d="
M184.608673,66.016190 
	C184.981461,66.463089 184.994354,66.897232 185.023300,67.656754 
	C179.625122,69.634621 174.210876,71.287109 168.772568,72.946953 
	C166.455536,68.473091 169.826675,62.539707 164.145996,59.319603 
	C166.067093,57.054981 168.147324,55.101807 170.227554,53.148628 
	C171.495651,54.634686 172.745926,56.136501 174.038940,57.600552 
	C174.749863,58.405525 175.532791,59.146923 176.642242,59.957657 
	C179.417068,62.000031 181.832916,64.001732 184.608673,66.016190 
z"/><path fill="#A06A3C" opacity="1.000000" stroke="none" 
	d="
M167.963531,76.622238 
	C163.834473,79.446945 160.094482,76.013588 158.670044,74.029182 
	C154.938080,68.830093 152.869598,62.517136 153.963409,55.368721 
	C155.450562,55.081104 156.898056,55.164127 157.993774,55.226971 
	C161.421524,62.488831 164.670929,69.372833 167.963531,76.622238 
z"/><path fill="#A06A3C" opacity="1.000000" stroke="none" 
	d="
M173.992676,82.007645 
	C172.349930,80.566154 170.707184,79.124664 169.031006,77.342804 
	C171.686401,76.668869 174.371078,76.295555 177.065247,76.012642 
	C179.884933,75.716545 179.905304,77.241829 179.029449,79.619614 
	C178.545029,79.988152 178.103668,79.990677 177.116089,79.733429 
	C175.710831,80.318314 174.851746,81.162979 173.992676,82.007645 
z"/><path fill="#A87545" opacity="1.000000" stroke="none" 
	d="
M187.912292,74.462677 
	C186.887039,74.016747 185.918350,73.216042 184.949646,72.415329 
	C185.521286,71.938850 186.092926,71.462379 186.664566,70.985901 
	C187.099335,72.026566 187.534088,73.067230 187.912292,74.462677 
z"/><path fill="#B07A4C" opacity="1.000000" stroke="none" 
	d="
M151.537079,80.268387 
	C155.464813,84.692642 159.744446,89.086227 162.565613,94.273087 
	C163.707520,96.372505 161.666870,100.202934 160.884277,103.965462 
	C160.457382,106.112488 160.220657,107.539726 159.983948,108.966957 
	C159.983948,108.966957 159.484924,108.980011 158.857605,108.986359 
	C157.472626,108.991676 156.714951,108.990646 155.957291,108.989616 
	C155.673706,108.582611 155.473511,107.934837 155.094421,107.803528 
	C143.071884,103.639053 150.096573,94.443008 149.783859,87.276924 
	C149.687256,85.063110 150.763550,82.798111 151.537079,80.268387 
z"/><path fill="#A06A3C" opacity="1.000000" stroke="none" 
	d="
M155.955368,109.344185 
	C156.714951,108.990646 157.472626,108.991676 158.608093,108.992706 
	C158.720322,109.837181 158.454727,110.681656 158.035858,111.832268 
	C157.239532,111.325188 156.596481,110.511971 155.955368,109.344185 
z"/><path fill="#A06A3C" opacity="1.000000" stroke="none" 
	d="
M158.081726,113.261932 
	C159.165588,113.286781 160.310150,113.589584 161.454712,113.892380 
	C160.872650,114.263000 160.290588,114.633614 159.358917,115.006760 
	C158.720367,114.519485 158.431396,114.029686 158.081726,113.261932 
z"/><path fill="#A06A3C" opacity="1.000000" stroke="none" 
	d="
M160.373383,108.973236 
	C160.220657,107.539726 160.457382,106.112488 160.839508,104.350014 
	C162.410553,103.128029 163.836197,102.241295 165.261841,101.354553 
	C165.695435,100.839699 166.129044,100.324852 166.562637,99.809998 
	C167.168625,101.105583 167.774597,102.401161 168.682251,103.855232 
	C168.122726,108.780022 163.504288,107.326073 160.373383,108.973236 
z"/><path fill="#B07A4C" opacity="1.000000" stroke="none" 
	d="
M174.254456,82.212082 
	C174.851746,81.162979 175.710831,80.318314 176.784912,79.734650 
	C177.304871,81.076416 177.328125,82.872543 177.960571,83.121590 
	C181.998611,84.711647 180.693939,87.592125 179.997391,90.721802 
	C179.182312,90.731110 178.410583,90.396133 177.323273,90.028793 
	C177.007675,89.996422 177.002197,89.499207 177.000687,88.874374 
	C176.335022,87.164909 175.670868,86.080276 175.006714,84.995644 
	C174.843216,84.135933 174.679733,83.276222 174.254456,82.212082 
z"/><path fill="#A06A3C" opacity="1.000000" stroke="none" 
	d="
M175.005646,85.345001 
	C175.670868,86.080276 176.335022,87.164909 176.998260,88.625763 
	C176.333069,87.899445 175.668823,86.796898 175.005646,85.345001 
z"/>
</svg>