<svg version="1.1" id="Layer_1" xmlns="http://www.w3.org/2000/svg" xmlns:xlink="http://www.w3.org/1999/xlink" x="0px" y="0px"
	 width="100%" viewBox="0 0 686 598" enable-background="new 0 0 686 598" xml:space="preserve">
<path fill="#0C3255" opacity="1.000000" stroke="none" 
	d="
M488.505829,168.640656 
	C492.420807,168.264099 493.524323,170.270630 492.945862,173.797897 
	C492.532379,176.319504 491.365479,178.809082 494.434387,180.936111 
	C495.378174,181.590225 495.463104,184.532013 494.939148,186.089096 
	C490.845398,198.255844 492.153931,210.813431 491.921082,223.260986 
	C491.754303,232.175385 490.899750,241.070618 494.701294,249.688843 
	C496.121429,252.908325 496.181671,256.868073 496.282257,260.506317 
	C496.912903,283.312378 497.587097,306.120789 497.828003,328.932831 
	C497.988495,344.128235 496.528900,359.196411 491.925110,373.829681 
	C491.536102,375.066193 492.096680,376.995270 492.885620,378.141876 
	C496.754578,383.764801 500.859161,389.225250 504.863953,394.755127 
	C514.508362,408.072357 516.190186,423.344543 515.293335,439.073273 
	C513.294739,474.120758 493.659882,498.047058 459.704987,507.440094 
	C442.594482,512.173462 425.136078,514.137451 407.460907,515.245361 
	C399.781738,515.726746 391.848511,517.197510 384.685394,519.933228 
	C362.288513,528.487000 339.283936,533.743713 315.372345,531.968140 
	C302.032471,530.977661 288.798767,527.633606 275.709686,524.536621 
	C267.865295,522.680542 261.919678,517.280334 257.578918,510.418640 
	C251.825668,501.324188 247.336716,491.789246 246.624496,480.764679 
	C245.540039,463.978302 244.667679,447.437256 249.275269,430.719513 
	C250.952209,424.635040 247.975739,416.614624 245.406006,410.160858 
	C241.169907,399.522064 235.502411,389.456299 230.502914,379.117706 
	C223.367493,364.362213 219.771149,348.987274 219.743042,332.380066 
	C219.722305,320.142242 217.104202,307.910583 215.678207,295.672119 
	C215.350830,292.862366 214.768250,290.004913 214.985809,287.222809 
	C215.830597,276.419861 210.288757,268.445557 203.549408,261.114594 
	C196.717667,253.683167 196.477341,252.965500 202.468582,243.938141 
	C199.927567,242.500748 197.451721,241.009659 194.892853,239.678146 
	C192.310547,238.334457 190.748047,236.260864 192.302765,233.646286 
	C194.266602,230.343689 192.529770,228.767960 190.274414,227.070282 
	C189.475723,226.469055 188.687271,225.854172 187.897537,225.241150 
	C183.144043,221.551270 183.065308,220.347961 187.407730,216.463928 
	C188.127716,215.819962 188.994690,215.340302 189.774231,214.798248 
	C180.791428,205.618011 180.791428,205.618011 188.227280,200.285721 
	C185.586807,198.716141 182.910416,197.363525 180.501495,195.637589 
	C176.854599,193.024658 176.942184,189.962997 181.076843,188.712692 
	C186.386490,187.107086 187.847153,183.824783 188.065689,178.787781 
	C188.880753,160.000992 189.693436,141.207611 190.988083,122.449921 
	C192.317413,103.189545 194.187500,83.966057 195.891495,64.732674 
	C196.050980,62.932365 196.527908,61.104103 197.179626,59.412971 
	C200.374466,51.122879 207.066437,47.793640 215.065399,51.503654 
	C220.087234,53.832851 225.270859,57.009705 228.791962,61.156345 
	C239.871674,74.204399 250.255981,87.846771 260.799622,101.344902 
	C268.072174,110.655342 275.331909,119.984695 282.286499,129.532059 
	C289.141998,138.943405 295.551208,148.678940 302.307617,158.164413 
	C303.202789,159.421204 305.118591,160.979446 306.345490,160.812134 
	C318.319824,159.179352 329.906921,161.596634 341.383270,164.204193 
	C348.163910,165.744843 354.546112,165.485992 361.036530,163.479935 
	C363.101654,162.841644 365.179138,161.824417 367.272369,161.767593 
	C377.112061,161.500366 379.889038,154.566360 382.192383,146.795486 
	C388.996521,123.840103 396.016998,100.948868 402.823547,77.994186 
	C406.925598,64.160309 412.540375,51.070610 420.967041,39.289394 
	C422.221924,37.534966 423.678406,35.918442 425.107574,34.296219 
	C428.461609,30.489124 431.990326,30.036612 436.584564,32.691628 
	C445.457672,37.819389 451.620178,45.161549 456.079742,54.182980 
	C465.171997,72.576057 469.973297,92.300903 473.728180,112.284340 
	C476.580719,127.465416 478.752411,142.774414 481.206909,157.902313 
	C482.488007,158.220352 485.707611,158.084930 486.702759,159.506607 
	C487.907928,161.228317 487.232239,164.266617 487.294952,167.363617 
	C487.648254,168.208252 488.077057,168.424454 488.505829,168.640656 
M418.244171,105.689629 
	C416.095673,116.867485 413.947174,128.045349 411.698273,139.745544 
	C412.771454,139.197113 413.215851,139.018326 413.608765,138.760956 
	C415.401581,137.586517 417.179962,136.390030 418.963501,135.201462 
	C419.963715,137.485443 421.502899,139.693710 421.836975,142.071289 
	C422.329620,145.577515 421.964172,149.204285 421.964172,152.935486 
	C428.634583,151.649750 428.634583,151.649750 431.021149,159.281693 
	C437.576843,157.763077 438.543091,158.737274 438.942017,165.640686 
	C439.103973,168.443405 439.667053,171.849731 441.386566,173.802399 
	C444.744598,177.615845 449.044769,180.599701 453.477112,184.364212 
	C468.602509,194.149826 478.139862,208.488678 485.460510,225.638229 
	C486.072784,223.928802 486.254700,223.633072 486.277924,223.325363 
	C487.175507,211.426178 488.063599,199.526260 488.929199,187.624725 
	C488.975220,186.991852 488.947540,186.293732 488.727661,185.711548 
	C487.625671,182.794220 486.448151,179.905426 485.009430,176.281937 
	C477.827148,175.971390 482.812836,169.282776 481.600983,165.465866 
	C475.449066,166.137680 474.874420,165.626328 474.802521,159.613861 
	C474.784607,158.115494 474.858734,156.608307 474.724426,155.120163 
	C472.158356,126.688370 466.487762,98.858643 457.567688,71.768738 
	C454.195618,61.527958 449.897766,51.473900 442.036499,43.574940 
	C436.622223,38.134647 435.195923,38.394188 432.660980,45.492512 
	C425.753967,64.833336 421.053894,84.705078 418.244171,105.689629 
M234.686508,224.800705 
	C242.434494,213.717834 250.182480,202.634979 257.878876,191.625916 
	C248.970779,181.031647 248.987778,179.901016 258.158783,175.848709 
	C256.501770,173.030945 253.591263,170.284775 253.484375,167.433487 
	C253.272888,161.792908 258.838135,165.014359 261.632751,163.479218 
	C261.833313,158.470001 255.472519,153.410751 261.922272,148.417816 
	C256.786163,138.519043 251.741623,128.796768 246.393860,118.368469 
	C245.858002,117.342110 245.364380,116.291000 244.779907,115.293121 
	C236.876785,101.800308 229.318100,88.086403 220.896118,74.925110 
	C216.753036,68.450600 211.175476,62.802708 203.153488,59.274761 
	C202.368149,61.988556 201.370087,64.133202 201.166107,66.350891 
	C199.673523,82.578827 198.060684,98.803658 197.027695,115.063896 
	C195.751678,135.149857 195.227905,155.284378 193.885239,175.364899 
	C193.467346,181.614670 194.599319,188.945984 186.906586,192.575439 
	C198.575317,200.406250 198.575317,200.406250 190.278076,206.814560 
	C196.790222,213.571442 196.790222,213.571442 192.288757,220.354446 
	C194.583344,223.506393 198.751480,226.660141 198.550690,229.505585 
	C198.164108,234.983780 201.205353,236.596481 204.627426,238.877701 
	C209.736618,242.283615 209.723145,243.484634 206.126709,248.817886 
	C205.145996,250.272232 204.046982,253.073410 204.719589,253.974243 
	C207.995392,258.361633 211.853653,262.314178 215.822891,266.777191 
	C217.975159,250.812439 225.214066,237.615768 234.686508,224.800705 
M477.924500,494.018646 
	C481.172180,491.723511 484.709808,489.745392 487.621124,487.082489 
	C508.836578,467.677155 512.856750,443.138214 508.285675,416.199768 
	C505.975647,402.586365 496.553223,392.905762 488.922852,382.290558 
	C479.904907,369.745026 470.592438,357.410736 461.623993,344.830627 
	C460.787445,343.657196 461.504761,341.376099 461.500580,339.609283 
	C463.094208,340.393585 465.250092,340.768890 466.174652,342.039886 
	C468.810181,345.663147 470.716339,349.814545 473.328400,353.457794 
	C477.422638,359.168274 481.860413,364.632507 486.152679,370.201050 
	C486.665466,370.040894 487.178253,369.880737 487.691040,369.720581 
	C488.819427,363.395142 490.782959,357.088104 490.922668,350.740906 
	C491.376312,330.128265 491.230316,309.500732 491.176147,288.879303 
	C491.149048,278.558014 491.473755,268.174286 490.481598,257.930878 
	C488.818390,240.759613 479.924591,226.188309 471.925781,211.419586 
	C465.962097,200.408539 456.028870,193.281219 446.274963,185.950974 
	C439.653046,180.974442 432.493835,176.079849 432.891327,165.860809 
	C427.792755,167.746017 425.750427,165.028122 424.728912,161.160797 
	C418.445679,161.193466 417.397400,160.215637 417.113892,153.974442 
	C416.988800,151.220734 417.092834,148.456604 417.092834,146.444977 
	C410.668579,151.416855 404.373016,156.289154 397.274170,161.166977 
	C388.492584,162.812912 379.449402,163.628876 370.989349,166.295105 
	C357.574371,170.522888 344.562103,171.029907 330.941742,167.355148 
	C321.846558,164.901260 312.304871,164.438187 302.165070,167.140472 
	C298.600769,167.843582 295.020142,168.473709 291.475433,169.264526 
	C283.306976,171.086868 275.887756,170.500717 270.362640,163.163727 
	C269.977753,162.652588 269.155121,162.471069 268.296967,162.006958 
	C269.174683,168.887360 268.829865,169.350494 262.429779,170.442398 
	C266.159027,179.543472 266.159027,179.543472 257.914398,183.077606 
	C259.468323,184.748352 260.886444,186.315521 262.350586,187.838440 
	C265.364868,190.973816 265.520691,193.684036 261.768585,196.567993 
	C259.726440,198.137650 258.128387,200.396622 256.644165,202.560211 
	C251.751190,209.692886 247.337814,217.178619 242.124176,224.062149 
	C232.364395,236.947937 223.714920,250.326080 221.530624,266.731628 
	C220.863403,271.742981 221.580536,276.934479 221.609314,282.043793 
	C221.640823,287.635498 221.218430,293.260223 221.682236,298.813019 
	C222.844772,312.730927 224.175293,326.643494 225.878540,340.504120 
	C226.824463,348.201630 227.430756,356.292664 230.321411,363.330994 
	C237.827881,381.608307 246.513565,399.401337 255.066650,418.127655 
	C259.123169,407.291748 263.045227,396.743805 267.040192,386.223511 
	C267.612823,384.715546 268.309601,383.122314 269.392944,381.995300 
	C269.952881,381.412750 271.752167,381.351349 272.500763,381.826965 
	C273.127991,382.225525 273.492645,383.900421 273.201843,384.744263 
	C270.873810,391.499237 268.483032,398.238098 265.884247,404.893188 
	C258.149933,424.699432 248.914566,443.979065 250.914963,466.329041 
	C252.188248,480.555145 252.887360,494.818878 261.897736,506.613159 
	C265.505463,511.335510 270.303772,516.936401 275.548950,518.281555 
	C290.756744,522.181702 306.465759,524.127258 322.884125,526.990051 
	C341.762573,526.552734 360.289673,523.862305 377.728577,516.418579 
	C389.919434,511.214935 402.574371,509.577881 415.555450,509.097931 
	C432.566406,508.468964 449.161346,505.499786 465.239532,499.947662 
	C469.410950,498.507172 473.259003,496.130341 477.924500,494.018646 
M248.964645,93.553665 
	C247.986511,92.209549 247.114563,90.770721 246.013443,89.536316 
	C237.294922,79.762581 228.725281,69.842751 219.654831,60.405186 
	C217.251831,57.904934 213.266418,56.925537 210.007599,55.247814 
	C210.424805,54.999489 210.842026,54.751163 211.259232,54.502838 
	C215.570862,59.769867 220.503311,64.649796 224.075119,70.378128 
	C233.913101,86.155937 243.587082,102.066032 252.539673,118.355927 
	C259.068329,130.235291 264.356689,142.796829 270.183136,155.061310 
	C274.192139,163.500122 288.627197,166.911896 298.214539,161.413742 
	C293.941132,154.882706 289.971771,148.146423 285.353424,141.889160 
	C273.519745,125.856094 261.397552,110.035957 248.964645,93.553665 
M391.506714,135.984207 
	C388.960510,143.067032 386.414307,150.149872 383.511047,158.225876 
	C388.194244,157.365341 391.772888,156.877213 395.262543,156.024963 
	C399.936554,154.883499 403.197571,152.354843 404.142090,147.142532 
	C405.087769,141.923843 406.889893,136.863419 407.901001,131.652969 
	C412.012085,110.467133 415.716461,89.199196 420.090088,68.069023 
	C421.957794,59.045570 425.099182,50.285748 427.675568,41.358482 
	C427.126282,41.358482 426.664734,41.225800 426.528870,41.380054 
	C425.657288,42.369396 424.765198,43.361767 424.047760,44.462582 
	C416.906525,55.419720 411.636047,67.214539 408.017242,79.789490 
	C402.690002,98.301064 397.213287,116.769630 391.506714,135.984207 
M428.649658,39.586151 
	C428.649658,39.586151 428.407349,39.466530 428.407349,39.466530 
	C428.407349,39.466530 428.458740,39.742031 428.649658,39.586151 
z"/>
<path fill="#B9774A" opacity="1.000000" stroke="none" 
	d="
M321.978058,526.839844 
	C306.465759,524.127258 290.756744,522.181702 275.548950,518.281555 
	C270.303772,516.936401 265.505463,511.335510 261.897736,506.613159 
	C252.887360,494.818878 252.188248,480.555145 250.914963,466.329041 
	C248.914566,443.979065 258.149933,424.699432 265.884247,404.893188 
	C268.483032,398.238098 270.873810,391.499237 273.201843,384.744263 
	C273.492645,383.900421 273.127991,382.225525 272.500763,381.826965 
	C271.752167,381.351349 269.952881,381.412750 269.392944,381.995300 
	C268.309601,383.122314 267.612823,384.715546 267.040192,386.223511 
	C263.045227,396.743805 259.123169,407.291748 255.066650,418.127655 
	C246.513565,399.401337 237.827881,381.608307 230.321411,363.330994 
	C227.430756,356.292664 226.824463,348.201630 225.878540,340.504120 
	C224.175293,326.643494 222.844772,312.730927 221.682236,298.813019 
	C221.218430,293.260223 221.640823,287.635498 221.609314,282.043793 
	C221.580536,276.934479 220.863403,271.742981 221.530624,266.731628 
	C223.714920,250.326080 232.364395,236.947937 242.124176,224.062149 
	C247.337814,217.178619 251.751190,209.692886 256.644165,202.560211 
	C258.128387,200.396622 259.726440,198.137650 261.768585,196.567993 
	C265.520691,193.684036 265.364868,190.973816 262.350586,187.838440 
	C260.886444,186.315521 259.468323,184.748352 257.914398,183.077606 
	C266.159027,179.543472 266.159027,179.543472 262.429779,170.442398 
	C268.829865,169.350494 269.174683,168.887360 268.296967,162.006958 
	C269.155121,162.471069 269.977753,162.652588 270.362640,163.163727 
	C275.887756,170.500717 283.306976,171.086868 291.475433,169.264526 
	C295.020142,168.473709 298.600769,167.843582 302.740723,167.418793 
	C309.173950,172.237411 315.055786,176.746964 320.875000,181.335953 
	C322.725372,182.795166 323.678162,184.359741 321.918640,186.858612 
	C321.396515,187.600098 322.434357,189.946899 323.342346,191.095947 
	C326.398895,194.964035 331.302155,198.185577 332.493103,202.486771 
	C333.685730,206.793900 335.763489,208.432892 339.080200,210.026505 
	C347.379700,214.014282 354.283417,219.402283 357.685059,228.422485 
	C359.791412,234.008057 361.956848,239.596451 364.558350,244.959198 
	C365.785492,247.488892 368.100159,249.491013 369.922089,251.732178 
	C370.409790,248.680145 371.419189,245.606537 371.293915,242.579865 
	C370.778198,230.117645 371.039764,218.007736 380.885773,208.463257 
	C382.147736,207.239944 383.053711,205.549042 383.819794,203.930481 
	C389.507355,191.914139 388.532379,177.574646 396.909943,166.436813 
	C397.895325,165.126816 397.716553,162.941177 398.077454,161.161438 
	C404.373016,156.289154 410.668579,151.416855 417.092834,146.444977 
	C417.092834,148.456604 416.988800,151.220734 417.113892,153.974442 
	C417.397400,160.215637 418.445679,161.193466 424.728912,161.160797 
	C425.750427,165.028122 427.792755,167.746017 432.891327,165.860809 
	C432.493835,176.079849 439.653046,180.974442 446.274963,185.950974 
	C456.028870,193.281219 465.962097,200.408539 471.925781,211.419586 
	C479.924591,226.188309 488.818390,240.759613 490.481598,257.930878 
	C491.473755,268.174286 491.149048,278.558014 491.176147,288.879303 
	C491.230316,309.500732 491.376312,330.128265 490.922668,350.740906 
	C490.782959,357.088104 488.819427,363.395142 487.691040,369.720581 
	C487.178253,369.880737 486.665466,370.040894 486.152679,370.201050 
	C481.860413,364.632507 477.422638,359.168274 473.328400,353.457794 
	C470.716339,349.814545 468.810181,345.663147 466.174652,342.039886 
	C465.250092,340.768890 463.094208,340.393585 461.500580,339.609283 
	C461.504761,341.376099 460.787445,343.657196 461.623993,344.830627 
	C470.592438,357.410736 479.904907,369.745026 488.922852,382.290558 
	C496.553223,392.905762 505.975647,402.586365 508.285675,416.199768 
	C512.856750,443.138214 508.836578,467.677155 487.621124,487.082489 
	C484.709808,489.745392 481.172180,491.723511 477.169708,494.038635 
	C466.739594,495.030701 457.081818,496.523773 447.384735,496.851013 
	C433.342346,497.324860 419.271484,496.954681 405.212769,496.945709 
	C387.716827,496.934540 372.366272,503.731445 357.309967,511.735260 
	C350.143677,515.544800 342.668335,518.797546 335.218842,522.040405 
	C330.922852,523.910400 326.399231,525.257446 321.978058,526.839844 
M427.827972,348.505219 
	C427.527039,348.354065 427.226135,348.202911 427.006653,348.043610 
	C427.006653,348.043610 426.936676,348.086212 426.917236,347.387268 
	C425.984619,346.489380 425.191956,345.338867 424.097748,344.732635 
	C412.944946,338.553772 402.137451,331.544281 390.472870,326.539612 
	C366.159058,316.107697 352.455048,319.461029 334.957977,338.628937 
	C330.279938,343.753723 326.021667,349.264771 321.630310,354.647125 
	C319.080658,357.772217 316.649689,360.994080 314.056244,364.154877 
	C314.056244,364.154877 314.159668,364.116089 313.601776,364.251709 
	C313.354034,364.746155 313.106293,365.240601 312.363312,366.196014 
	C299.150574,375.380951 293.956879,389.547577 289.882782,404.006989 
	C288.532318,408.799896 289.665405,414.574524 290.716888,419.683411 
	C291.780029,424.848846 293.967651,429.819733 295.983765,434.744385 
	C300.034729,444.639282 306.547394,448.861938 317.216675,448.867462 
	C331.605957,448.874908 337.203522,441.128265 332.336609,427.942719 
	C332.221283,427.630249 332.140533,427.299927 331.987701,427.007141 
	C330.451538,424.063660 331.655060,421.964844 333.998383,420.125061 
	C339.153961,416.077362 348.191101,417.542786 351.866913,424.008240 
	C354.678772,428.954102 356.628082,434.648376 357.720978,440.251648 
	C359.274139,448.214661 356.190247,452.716888 348.216125,454.428558 
	C341.269012,455.919861 334.104858,456.476990 327.009644,457.171021 
	C323.063293,457.557007 319.040985,457.785614 317.455627,462.070953 
	C315.959564,466.114960 318.270233,469.416443 321.292755,471.610748 
	C329.891266,477.852997 338.443726,484.260315 347.606384,489.583466 
	C352.633759,492.504150 358.798279,494.638641 364.550995,494.899231 
	C377.078857,495.466675 389.673401,494.669006 402.235168,494.259003 
	C403.983978,494.201935 405.747894,493.291870 407.423706,492.584564 
	C411.103760,491.031219 414.683197,489.233276 418.389679,487.750000 
	C433.982330,481.510101 441.783295,469.160797 445.034576,453.452271 
	C445.753906,449.976746 445.637146,446.146332 445.046509,442.623291 
	C444.109924,437.036652 440.776855,434.348877 435.213013,434.986389 
	C430.651276,435.509033 426.156769,436.989105 421.753937,438.418945 
	C417.701202,439.735107 413.992706,439.036865 412.047089,435.579041 
	C409.165619,430.457977 406.091980,424.987701 405.166351,419.328217 
	C403.693542,410.322968 410.717407,403.288513 419.869263,402.826355 
	C424.091766,402.613129 427.278778,404.070099 427.940491,408.448120 
	C428.501007,412.156433 428.111542,415.999420 428.501343,419.745483 
	C428.763824,422.268097 428.927338,425.328674 430.399170,427.095520 
	C434.276672,431.750061 443.967896,431.861176 448.734741,427.905701 
	C455.540100,422.258636 458.668732,414.691681 458.036865,406.217743 
	C456.365265,383.799927 449.069794,363.961792 429.662476,349.675415 
	C429.110779,349.440125 428.559052,349.204865 428.006348,348.993011 
	C428.006348,348.993011 428.028900,348.986359 427.827972,348.505219 
M241.806747,340.819763 
	C241.806747,340.819763 241.913437,340.974304 241.959427,341.703613 
	C242.809830,342.660522 243.660233,343.617462 244.510651,344.574371 
	C246.313828,342.790100 248.742981,341.299438 249.754288,339.143677 
	C250.897705,336.706268 250.225632,333.435883 251.307266,330.946747 
	C253.413910,326.098724 248.527771,324.104095 247.596375,320.556244 
	C247.513306,320.239807 245.029434,319.928680 244.491257,320.458679 
	C241.129547,323.769012 237.501083,322.623779 233.852676,321.440521 
	C230.162491,320.243683 229.017395,321.893219 229.000626,325.334656 
	C228.982056,329.146637 228.665222,332.956635 228.615128,336.769287 
	C228.594925,338.307159 228.439636,340.812408 229.208496,341.210266 
	C231.538849,342.416138 234.278046,343.268127 236.883759,343.341492 
	C238.437302,343.385254 240.039322,341.708099 241.806747,340.819763 
M411.465576,213.188309 
	C410.204895,215.662491 408.588104,218.022888 407.753815,220.633347 
	C405.693939,227.078812 407.782288,232.717712 412.096985,237.565338 
	C416.315704,242.305084 421.845306,242.814774 427.636566,241.588531 
	C430.668640,240.946518 433.608765,239.870270 436.292267,239.789124 
	C436.021301,240.749146 435.716003,241.700989 435.484711,242.670471 
	C432.951813,253.285645 439.078796,263.361115 450.272003,267.005310 
	C460.503357,270.336365 471.483948,265.687988 475.295807,256.306061 
	C478.425507,248.603165 476.139832,242.052200 470.846069,236.129089 
	C465.666473,230.333679 453.927826,227.202347 446.514709,230.808380 
	C444.738190,231.672562 442.868011,232.344284 440.991699,232.311981 
	C441.982178,229.028931 443.360535,225.806503 443.885071,222.450623 
	C445.101715,214.666428 440.898193,209.393188 435.719269,204.864182 
	C436.734497,203.626068 437.749725,202.387955 438.764954,201.149841 
	C437.100861,200.666794 435.138062,199.361954 433.823212,199.839828 
	C427.369934,202.185150 420.988098,204.798370 414.823883,207.813477 
	C413.429352,208.495590 413.002899,211.156876 411.465576,213.188309 
M298.860413,216.123627 
	C299.558868,212.456573 296.976746,210.770462 294.318573,210.088287 
	C287.351288,208.300278 280.268890,206.936493 273.189728,205.635651 
	C272.161102,205.446655 270.055817,206.380371 269.934143,207.060410 
	C269.732239,208.188538 270.736145,209.532501 271.085052,211.506561 
	C266.544128,217.018814 263.416260,222.894363 263.842896,230.488968 
	C264.263000,237.968018 267.792206,243.212112 274.077759,246.416855 
	C280.105621,249.490250 286.258881,248.753571 292.036285,245.025925 
	C301.412598,238.976181 305.150757,224.035217 298.860413,216.123627 
M274.540955,278.737488 
	C278.373810,267.225800 273.795990,256.396515 263.419708,252.428955 
	C253.889771,248.784988 242.977600,253.300323 238.783554,262.623108 
	C234.316727,272.552246 238.454941,284.122192 248.181213,288.897888 
	C257.861237,293.650818 268.488556,289.789856 274.540955,278.737488 
M480.150116,317.291931 
	C482.032593,309.920502 483.988190,302.566132 485.714844,295.158417 
	C485.960236,294.105652 485.093414,292.793640 484.741364,291.601593 
	C483.576721,291.992096 482.325378,292.229340 481.275879,292.823273 
	C480.487061,293.269714 479.957458,294.174103 479.366028,294.816467 
	C477.545227,293.941681 475.612305,292.203888 474.493561,292.625641 
	C470.981018,293.949951 464.950348,290.443085 464.191559,297.542175 
	C464.170074,297.743073 462.782013,297.610382 462.391693,297.997101 
	C461.481750,298.898621 460.225128,299.968231 460.120544,301.066132 
	C459.821716,304.202911 459.712189,307.435791 460.184357,310.530792 
	C460.382721,311.831146 462.021027,313.427246 463.367249,313.943390 
	C467.964783,315.706177 472.709442,317.096069 477.437500,318.494537 
	C478.056122,318.677551 478.904938,318.082367 480.150116,317.291931 
M500.963623,447.368958 
	C500.175140,446.039062 499.386658,444.709167 498.598145,443.379242 
	C497.788757,444.503693 496.979370,445.628143 496.170013,446.752625 
	C497.689423,447.200470 499.208832,447.648346 500.963623,447.368958 
z"/>
<path fill="#B8774A" opacity="1.000000" stroke="none" 
	d="
M234.117889,225.166122 
	C225.214066,237.615768 217.975159,250.812439 215.822891,266.777191 
	C211.853653,262.314178 207.995392,258.361633 204.719589,253.974243 
	C204.046982,253.073410 205.145996,250.272232 206.126709,248.817886 
	C209.723145,243.484634 209.736618,242.283615 204.627426,238.877701 
	C201.205353,236.596481 198.164108,234.983780 198.550690,229.505585 
	C198.751480,226.660141 194.583344,223.506393 192.288757,220.354446 
	C196.790222,213.571442 196.790222,213.571442 190.278076,206.814560 
	C198.575317,200.406250 198.575317,200.406250 186.906586,192.575439 
	C194.599319,188.945984 193.467346,181.614670 193.885239,175.364899 
	C195.227905,155.284378 195.751678,135.149857 197.027695,115.063896 
	C198.060684,98.803658 199.673523,82.578827 201.166107,66.350891 
	C201.370087,64.133202 202.368149,61.988556 203.153488,59.274761 
	C211.175476,62.802708 216.753036,68.450600 220.896118,74.925110 
	C229.318100,88.086403 236.876785,101.800308 244.779907,115.293121 
	C245.364380,116.291000 245.858002,117.342110 246.116257,118.678001 
	C244.528152,118.311440 243.282410,117.389420 241.890396,117.022972 
	C240.237228,116.587753 238.458267,116.630409 236.733826,116.465981 
	C236.672180,118.031464 236.161835,119.750252 236.634323,121.133255 
	C237.968628,125.038864 239.702377,128.808273 241.285828,132.628433 
	C242.856506,136.417740 244.435806,140.203491 246.005768,143.995316 
	C246.000229,143.999817 245.991684,144.010422 245.611740,144.012878 
	C240.928482,142.323395 236.683197,140.452255 232.292328,139.030701 
	C230.617020,138.488297 227.805008,138.249069 226.959229,139.183060 
	C225.954895,140.292130 226.064774,142.919189 226.483215,144.702744 
	C227.382233,148.534912 228.788834,152.247971 229.993698,156.005005 
	C229.999741,156.000214 230.008865,155.988419 229.651276,155.953674 
	C227.856384,155.105225 226.504868,153.983841 224.960739,153.553314 
	C222.887665,152.975342 220.665771,152.931198 218.507751,152.657898 
	C218.995071,154.763916 219.007324,157.148590 220.051178,158.928146 
	C224.809509,167.039993 229.857742,174.981781 234.826935,183.025452 
	C228.053680,185.783844 227.629456,187.641815 231.131744,193.850906 
	C233.010101,197.181015 237.387161,200.625885 232.295868,204.878342 
	C232.056183,205.078552 232.074799,205.971130 232.310165,206.300156 
	C236.567169,212.251572 233.369720,218.897781 234.117889,225.166122 
z"/>
<path fill="#B7774A" opacity="1.000000" stroke="none" 
	d="
M418.667542,105.113388 
	C421.053894,84.705078 425.753967,64.833336 432.660980,45.492512 
	C435.195923,38.394188 436.622223,38.134647 442.036499,43.574940 
	C449.897766,51.473900 454.195618,61.527958 457.567688,71.768738 
	C466.487762,98.858643 472.158356,126.688370 474.724426,155.120163 
	C474.858734,156.608307 474.784607,158.115494 474.802521,159.613861 
	C474.874420,165.626328 475.449066,166.137680 481.600983,165.465866 
	C482.812836,169.282776 477.827148,175.971390 485.009430,176.281937 
	C486.448151,179.905426 487.625671,182.794220 488.727661,185.711548 
	C488.947540,186.293732 488.975220,186.991852 488.929199,187.624725 
	C488.063599,199.526260 487.175507,211.426178 486.277924,223.325363 
	C486.254700,223.633072 486.072784,223.928802 485.460510,225.638229 
	C478.139862,208.488678 468.602509,194.149826 453.225403,183.684738 
	C452.993195,175.352692 453.061890,167.699661 452.987701,160.047989 
	C452.973999,158.635223 452.642639,156.138214 452.016937,155.988876 
	C446.461365,154.662720 448.255981,150.324768 447.954468,146.861099 
	C447.564331,142.379227 445.465118,141.211746 441.956757,143.557648 
	C441.322784,143.981567 440.659943,144.362305 439.560394,145.040619 
	C439.331726,143.793045 439.079712,143.040665 439.073730,142.286346 
	C439.027740,136.463882 439.231995,130.629395 438.898407,124.825104 
	C438.792053,122.975342 437.296539,121.205437 436.436676,119.398987 
	C434.970398,120.592155 433.257996,121.587029 432.097900,123.026886 
	C430.520416,124.984917 429.364990,127.282990 428.028564,129.435242 
	C427.621307,129.292648 427.214050,129.150070 426.806793,129.007492 
	C427.108612,123.780106 427.466766,118.555161 427.693420,113.324524 
	C427.858795,109.509117 428.028931,105.676392 427.819366,101.872185 
	C427.750000,100.612831 426.503845,99.418297 425.795746,98.194122 
	C424.577209,98.917946 423.147980,99.435814 422.190704,100.415054 
	C420.833954,101.802902 419.825073,103.530800 418.667542,105.113388 
z"/>
<path fill="#875027" opacity="1.000000" stroke="none" 
	d="
M397.675812,161.164215 
	C397.716553,162.941177 397.895325,165.126816 396.909943,166.436813 
	C388.532379,177.574646 389.507355,191.914139 383.819794,203.930481 
	C383.053711,205.549042 382.147736,207.239944 380.885773,208.463257 
	C371.039764,218.007736 370.778198,230.117645 371.293915,242.579865 
	C371.419189,245.606537 370.409790,248.680145 369.922089,251.732178 
	C368.100159,249.491013 365.785492,247.488892 364.558350,244.959198 
	C361.956848,239.596451 359.791412,234.008057 357.685059,228.422485 
	C354.283417,219.402283 347.379700,214.014282 339.080200,210.026505 
	C335.763489,208.432892 333.685730,206.793900 332.493103,202.486771 
	C331.302155,198.185577 326.398895,194.964035 323.342346,191.095947 
	C322.434357,189.946899 321.396515,187.600098 321.918640,186.858612 
	C323.678162,184.359741 322.725372,182.795166 320.875000,181.335953 
	C315.055786,176.746964 309.173950,172.237411 303.135254,167.408783 
	C312.304871,164.438187 321.846558,164.901260 330.941742,167.355148 
	C344.562103,171.029907 357.574371,170.522888 370.989349,166.295105 
	C379.449402,163.628876 388.492584,162.812912 397.675812,161.164215 
z"/>
<path fill="#865027" opacity="1.000000" stroke="none" 
	d="
M234.402191,224.983414 
	C233.369720,218.897781 236.567169,212.251572 232.310165,206.300156 
	C232.074799,205.971130 232.056183,205.078552 232.295868,204.878342 
	C237.387161,200.625885 233.010101,197.181015 231.131744,193.850906 
	C227.629456,187.641815 228.053680,185.783844 234.826935,183.025452 
	C229.857742,174.981781 224.809509,167.039993 220.051178,158.928146 
	C219.007324,157.148590 218.995071,154.763916 218.507751,152.657898 
	C220.665771,152.931198 222.887665,152.975342 224.960739,153.553314 
	C226.504868,153.983841 227.856384,155.105225 229.702026,156.094086 
	C230.196671,156.317688 230.282974,156.366165 230.369263,156.414627 
	C230.242065,156.279678 230.114868,156.144730 229.987671,156.009781 
	C228.788834,152.247971 227.382233,148.534912 226.483215,144.702744 
	C226.064774,142.919189 225.954895,140.292130 226.959229,139.183060 
	C227.805008,138.249069 230.617020,138.488297 232.292328,139.030701 
	C236.683197,140.452255 240.928482,142.323395 245.665771,144.157593 
	C246.194473,144.346161 246.289169,144.392471 246.383881,144.438782 
	C246.259689,144.289459 246.135498,144.140137 246.011322,143.990814 
	C244.435806,140.203491 242.856506,136.417740 241.285828,132.628433 
	C239.702377,128.808273 237.968628,125.038864 236.634323,121.133255 
	C236.161835,119.750252 236.672180,118.031464 236.733826,116.465981 
	C238.458267,116.630409 240.237228,116.587753 241.890396,117.022972 
	C243.282410,117.389420 244.528152,118.311440 246.267868,119.031006 
	C251.741623,128.796768 256.786163,138.519043 261.922272,148.417816 
	C255.472519,153.410751 261.833313,158.470001 261.632751,163.479218 
	C258.838135,165.014359 253.272888,161.792908 253.484375,167.433487 
	C253.591263,170.284775 256.501770,173.030945 258.158783,175.848709 
	C248.987778,179.901016 248.970779,181.031647 257.878876,191.625916 
	C250.182480,202.634979 242.434494,213.717834 234.402191,224.983414 
z"/>
<path fill="#855028" opacity="1.000000" stroke="none" 
	d="
M322.431091,526.914917 
	C326.399231,525.257446 330.922852,523.910400 335.218842,522.040405 
	C342.668335,518.797546 350.143677,515.544800 357.309967,511.735260 
	C372.366272,503.731445 387.716827,496.934540 405.212769,496.945709 
	C419.271484,496.954681 433.342346,497.324860 447.384735,496.851013 
	C457.081818,496.523773 466.739594,495.030701 476.835266,494.121094 
	C473.259003,496.130341 469.410950,498.507172 465.239532,499.947662 
	C449.161346,505.499786 432.566406,508.468964 415.555450,509.097931 
	C402.574371,509.577881 389.919434,511.214935 377.728577,516.418579 
	C360.289673,523.862305 341.762573,526.552734 322.431091,526.914917 
z"/>
<path fill="#824F28" opacity="1.000000" stroke="none" 
	d="
M249.177673,93.842178 
	C261.397552,110.035957 273.519745,125.856094 285.353424,141.889160 
	C289.971771,148.146423 293.941132,154.882706 298.214539,161.413742 
	C288.627197,166.911896 274.192139,163.500122 270.183136,155.061310 
	C264.356689,142.796829 259.068329,130.235291 252.539673,118.355927 
	C243.587082,102.066032 233.913101,86.155937 224.075119,70.378128 
	C220.503311,64.649796 215.570862,59.769867 211.259232,54.502838 
	C210.842026,54.751163 210.424805,54.999489 210.007599,55.247814 
	C213.266418,56.925537 217.251831,57.904934 219.654831,60.405186 
	C228.725281,69.842751 237.294922,79.762581 246.013443,89.536316 
	C247.114563,90.770721 247.986511,92.209549 249.177673,93.842178 
z"/>
<path fill="#865028" opacity="1.000000" stroke="none" 
	d="
M418.455872,105.401505 
	C419.825073,103.530800 420.833954,101.802902 422.190704,100.415054 
	C423.147980,99.435814 424.577209,98.917946 425.795746,98.194122 
	C426.503845,99.418297 427.750000,100.612831 427.819366,101.872185 
	C428.028931,105.676392 427.858795,109.509117 427.693420,113.324524 
	C427.466766,118.555161 427.108612,123.780106 426.806793,129.007492 
	C427.214050,129.150070 427.621307,129.292648 428.028564,129.435242 
	C429.364990,127.282990 430.520416,124.984917 432.097900,123.026886 
	C433.257996,121.587029 434.970398,120.592155 436.436676,119.398987 
	C437.296539,121.205437 438.792053,122.975342 438.898407,124.825104 
	C439.231995,130.629395 439.027740,136.463882 439.073730,142.286346 
	C439.079712,143.040665 439.331726,143.793045 439.560394,145.040619 
	C440.659943,144.362305 441.322784,143.981567 441.956757,143.557648 
	C445.465118,141.211746 447.564331,142.379227 447.954468,146.861099 
	C448.255981,150.324768 446.461365,154.662720 452.016937,155.988876 
	C452.642639,156.138214 452.973999,158.635223 452.987701,160.047989 
	C453.061890,167.699661 452.993195,175.352692 452.964294,183.466156 
	C449.044769,180.599701 444.744598,177.615845 441.386566,173.802399 
	C439.667053,171.849731 439.103973,168.443405 438.942017,165.640686 
	C438.543091,158.737274 437.576843,157.763077 431.021149,159.281693 
	C428.634583,151.649750 428.634583,151.649750 421.964172,152.935486 
	C421.964172,149.204285 422.329620,145.577515 421.836975,142.071289 
	C421.502899,139.693710 419.963715,137.485443 418.963501,135.201477 
	C417.179962,136.390030 415.401581,137.586517 413.608765,138.760956 
	C413.215851,139.018326 412.771454,139.197113 411.698273,139.745544 
	C413.947174,128.045349 416.095673,116.867485 418.455872,105.401505 
z"/>
<path fill="#824F28" opacity="1.000000" stroke="none" 
	d="
M391.653473,135.620361 
	C397.213287,116.769630 402.690002,98.301064 408.017242,79.789490 
	C411.636047,67.214539 416.906525,55.419720 424.047760,44.462582 
	C424.765198,43.361767 425.657288,42.369396 426.528870,41.380054 
	C426.664734,41.225800 427.126282,41.358482 427.675568,41.358482 
	C425.099182,50.285748 421.957794,59.045570 420.090088,68.069023 
	C415.716461,89.199196 412.012085,110.467133 407.901001,131.652969 
	C406.889893,136.863419 405.087769,141.923843 404.142090,147.142532 
	C403.197571,152.354843 399.936554,154.883499 395.262543,156.024963 
	C391.772888,156.877213 388.194244,157.365341 383.511047,158.225876 
	C386.414307,150.149872 388.960510,143.067032 391.653473,135.620361 
z"/>
<path fill="#FFFFFF" opacity="1.000000" stroke="none" 
	d="
M488.264740,168.350937 
	C488.077057,168.424454 487.648254,168.208252 487.352753,167.762466 
	C487.665222,167.708984 487.844421,167.885101 488.264740,168.350937 
z"/>
<path fill="#824F28" opacity="1.000000" stroke="none" 
	d="
M428.554199,39.664093 
	C428.458740,39.742031 428.407349,39.466530 428.407349,39.466530 
	C428.407349,39.466530 428.649658,39.586151 428.554199,39.664093 
z"/>
<path fill="#092F51" opacity="1.000000" stroke="none" 
	d="
M429.831482,350.281097 
	C449.069794,363.961792 456.365265,383.799927 458.036865,406.217743 
	C458.668732,414.691681 455.540100,422.258636 448.734741,427.905701 
	C443.967896,431.861176 434.276672,431.750061 430.399170,427.095520 
	C428.927338,425.328674 428.763824,422.268097 428.501343,419.745483 
	C428.111542,415.999420 428.501007,412.156433 427.940491,408.448120 
	C427.278778,404.070099 424.091766,402.613129 419.869263,402.826355 
	C410.717407,403.288513 403.693542,410.322968 405.166351,419.328217 
	C406.091980,424.987701 409.165619,430.457977 412.047089,435.579041 
	C413.992706,439.036865 417.701202,439.735107 421.753937,438.418945 
	C426.156769,436.989105 430.651276,435.509033 435.213013,434.986389 
	C440.776855,434.348877 444.109924,437.036652 445.046509,442.623291 
	C445.637146,446.146332 445.753906,449.976746 445.034576,453.452271 
	C441.783295,469.160797 433.982330,481.510101 418.389679,487.750000 
	C414.683197,489.233276 411.103760,491.031219 407.423706,492.584564 
	C405.747894,493.291870 403.983978,494.201935 402.235168,494.259003 
	C389.673401,494.669006 377.078857,495.466675 364.550995,494.899231 
	C358.798279,494.638641 352.633759,492.504150 347.606384,489.583466 
	C338.443726,484.260315 329.891266,477.852997 321.292755,471.610748 
	C318.270233,469.416443 315.959564,466.114960 317.455627,462.070953 
	C319.040985,457.785614 323.063293,457.557007 327.009644,457.171021 
	C334.104858,456.476990 341.269012,455.919861 348.216125,454.428558 
	C356.190247,452.716888 359.274139,448.214661 357.720978,440.251648 
	C356.628082,434.648376 354.678772,428.954102 351.866913,424.008240 
	C348.191101,417.542786 339.153961,416.077362 333.998383,420.125061 
	C331.655060,421.964844 330.451538,424.063660 331.987701,427.007141 
	C332.140533,427.299927 332.221283,427.630249 332.336609,427.942719 
	C337.203522,441.128265 331.605957,448.874908 317.216675,448.867462 
	C306.547394,448.861938 300.034729,444.639282 295.983765,434.744385 
	C293.967651,429.819733 291.780029,424.848846 290.716888,419.683411 
	C289.665405,414.574524 288.532318,408.799896 289.882782,404.006989 
	C293.956879,389.547577 299.150574,375.380951 312.892517,365.896515 
	C313.667725,365.103363 313.913696,364.609741 314.159668,364.116089 
	C314.159668,364.116089 314.056244,364.154877 314.468262,364.161377 
	C316.634583,363.251068 318.474792,362.466888 320.128815,361.395325 
	C328.756104,355.805908 338.087799,352.302216 348.288605,350.691895 
	C357.282318,349.272125 366.120178,346.889099 375.094208,345.315674 
	C392.558899,342.253571 409.993835,340.875916 426.936676,348.086212 
	C426.936676,348.086212 427.006653,348.043610 427.049774,348.299133 
	C427.404877,348.698547 427.716888,348.842468 428.028900,348.986389 
	C428.028900,348.986359 428.006348,348.993011 428.135071,349.248108 
	C428.786377,349.762482 429.308929,350.021790 429.831482,350.281097 
M425.997192,355.003662 
	C425.997192,355.003662 426.007233,355.010040 425.720886,354.475311 
	C425.170258,354.238647 424.619629,354.001984 423.583252,353.274078 
	C414.874878,347.843018 404.921326,347.720123 395.534576,348.785370 
	C378.065125,350.768005 360.696716,353.945709 343.452515,357.445251 
	C337.301056,358.693604 331.631531,362.316833 325.222687,364.982971 
	C324.814331,365.308167 324.406006,365.633392 323.295715,366.020142 
	C316.033813,370.349152 308.654724,374.548492 304.400085,383.030243 
	C304.276398,383.371216 304.152710,383.712189 303.867249,384.355469 
	C303.867249,384.355469 303.830383,384.696320 303.348846,385.124084 
	C303.189178,385.729614 303.029510,386.335144 302.898468,386.887299 
	C302.898468,386.887299 302.841156,386.864471 302.291168,387.291046 
	C300.356140,391.518890 298.000366,395.614288 296.615448,400.015259 
	C295.447693,403.726105 294.408997,407.973846 295.081696,411.661316 
	C296.368652,418.715729 298.643005,425.634430 301.004578,432.436951 
	C303.912262,440.812592 312.360596,444.983459 321.015411,442.824066 
	C329.487091,440.710388 330.683350,438.228088 327.139191,430.116638 
	C324.194183,423.376312 325.277252,419.793213 331.384094,415.773224 
	C339.512054,410.422791 346.853607,412.997314 354.440674,418.439301 
	C359.700867,424.414032 361.766479,431.634186 363.197540,439.298615 
	C364.564392,446.619537 362.905701,452.435425 356.246887,457.174194 
	C345.264160,459.699890 334.281433,462.225586 322.938599,464.834076 
	C323.868469,465.961639 324.844574,467.754211 326.334290,468.845886 
	C332.633270,473.461609 339.020691,477.964294 345.496979,482.328430 
	C353.903564,487.993378 363.304291,490.586823 373.385956,490.166077 
	C379.842041,489.896606 386.360077,488.033661 392.687622,488.625244 
	C399.048126,489.219940 404.490753,488.105652 409.937653,485.291718 
	C412.296814,484.072937 414.807007,483.140259 417.270020,482.129852 
	C430.275269,476.794861 440.636108,460.912201 440.211884,446.931885 
	C440.022125,440.678406 437.900269,439.052551 432.071899,440.898651 
	C429.556946,441.695251 427.142212,442.808289 423.889648,443.802063 
	C415.855621,446.556610 409.940735,443.317139 405.712036,436.758026 
	C401.179260,429.727264 398.119415,422.109985 399.855255,412.848511 
	C400.585876,411.175018 401.218018,409.449829 402.064270,407.837036 
	C405.595856,401.106537 415.702515,396.031616 423.148834,397.181366 
	C431.152954,398.417267 435.648254,406.922394 434.374207,417.606018 
	C434.128113,419.669891 435.085266,423.533264 436.136871,423.778229 
	C439.027191,424.451538 443.342590,424.809814 445.121948,423.162476 
	C448.203064,420.309998 450.947357,416.092102 451.799408,412.021301 
	C454.357452,399.799744 450.331635,388.400085 445.223145,377.506989 
	C441.132294,368.783875 436.495178,360.287140 427.088928,355.900696 
	C427.088928,355.900696 427.087769,355.938721 426.918823,355.437317 
	C426.608521,355.290161 426.298218,355.143005 425.997192,355.003662 
z"/>
<path fill="#865027" opacity="1.000000" stroke="none" 
	d="
M426.926941,347.736755 
	C409.993835,340.875916 392.558899,342.253571 375.094208,345.315674 
	C366.120178,346.889099 357.282318,349.272125 348.288605,350.691895 
	C338.087799,352.302216 328.756104,355.805908 320.128815,361.395325 
	C318.474792,362.466888 316.634583,363.251068 314.522766,364.170105 
	C316.649689,360.994080 319.080658,357.772217 321.630310,354.647125 
	C326.021667,349.264771 330.279938,343.753723 334.957977,338.628937 
	C352.455048,319.461029 366.159058,316.107697 390.472870,326.539612 
	C402.137451,331.544281 412.944946,338.553772 424.097748,344.732635 
	C425.191956,345.338867 425.984619,346.489380 426.926941,347.736755 
z"/>
<path fill="#042D52" opacity="1.000000" stroke="none" 
	d="
M441.040924,233.104523 
	C442.868011,232.344284 444.738190,231.672562 446.514709,230.808380 
	C453.927826,227.202347 465.666473,230.333679 470.846069,236.129089 
	C476.139832,242.052200 478.425507,248.603165 475.295807,256.306061 
	C471.483948,265.687988 460.503357,270.336365 450.272003,267.005310 
	C439.078796,263.361115 432.951813,253.285645 435.484711,242.670471 
	C435.716003,241.700989 436.021301,240.749146 436.565674,239.305176 
	C436.965454,238.645981 437.019196,238.450668 437.226440,238.066376 
	C437.689484,237.611435 437.926361,237.325394 438.424744,236.893692 
	C439.383911,235.815994 440.081573,234.883957 440.871094,233.720856 
	C440.962921,233.489807 441.079010,233.006287 441.045197,233.021423 
	C441.011383,233.036545 441.040924,233.104507 441.040924,233.104523 
z"/>
<path fill="#042D52" opacity="1.000000" stroke="none" 
	d="
M274.372925,279.090454 
	C268.488556,289.789856 257.861237,293.650818 248.181213,288.897888 
	C238.454941,284.122192 234.316727,272.552246 238.783554,262.623108 
	C242.977600,253.300323 253.889771,248.784988 263.419708,252.428955 
	C273.795990,256.396515 278.373810,267.225800 274.372925,279.090454 
z"/>
<path fill="#875027" opacity="1.000000" stroke="none" 
	d="
M298.677856,216.856094 
	C305.150757,224.035217 301.412598,238.976181 292.036285,245.025925 
	C286.258881,248.753571 280.105621,249.490250 274.077759,246.416855 
	C267.792206,243.212112 264.263000,237.968018 263.842896,230.488968 
	C263.416260,222.894363 266.544128,217.018814 271.590088,211.154175 
	C279.898468,211.053070 287.526306,211.943756 294.450714,216.066483 
	C295.606689,216.754745 297.256317,216.613846 298.677856,216.856094 
z"/>
<path fill="#875127" opacity="1.000000" stroke="none" 
	d="
M440.779266,233.951920 
	C440.081573,234.883957 439.383911,235.815994 438.230896,236.730789 
	C437.517090,237.220795 437.258667,237.728043 437.000244,238.235275 
	C437.019196,238.450668 436.965454,238.645981 436.714752,238.905670 
	C433.608765,239.870270 430.668640,240.946518 427.636566,241.588531 
	C421.845306,242.814774 416.315704,242.305084 412.096985,237.565338 
	C407.782288,232.717712 405.693939,227.078812 407.753815,220.633347 
	C408.588104,218.022888 410.204895,215.662491 412.125763,213.175690 
	C414.449219,213.014374 416.270355,213.252243 417.747925,212.648804 
	C423.566589,210.272552 429.277222,207.631805 435.027985,205.089233 
	C440.898193,209.393188 445.101715,214.666428 443.885071,222.450623 
	C443.360535,225.806503 441.982178,229.028931 441.016296,232.708252 
	C441.040924,233.104507 441.011383,233.036545 440.866943,233.074463 
	C440.628540,233.190659 440.441711,233.304367 440.455841,233.341309 
	C440.537384,233.554886 440.666351,233.750336 440.779266,233.951920 
z"/>
<path fill="#C1968B" opacity="1.000000" stroke="none" 
	d="
M479.898621,317.569763 
	C478.904938,318.082367 478.056122,318.677551 477.437500,318.494537 
	C472.709442,317.096069 467.964783,315.706177 463.367249,313.943390 
	C462.021027,313.427246 460.382721,311.831146 460.184357,310.530792 
	C459.712189,307.435791 459.821716,304.202911 460.120544,301.066132 
	C460.225128,299.968231 461.481750,298.898621 462.391693,297.997101 
	C462.782013,297.610382 464.170074,297.743073 464.191559,297.542175 
	C464.950348,290.443085 470.981018,293.949951 474.493561,292.625641 
	C475.612305,292.203888 477.545227,293.941681 479.366028,294.816467 
	C479.957458,294.174103 480.487061,293.269714 481.275879,292.823273 
	C482.325378,292.229340 483.576721,291.992096 484.741364,291.601593 
	C485.093414,292.793640 485.960236,294.105652 485.714844,295.158417 
	C483.988190,302.566132 482.032593,309.920502 479.898621,317.569763 
M473.577667,312.837860 
	C474.809113,311.632111 476.711273,310.621948 477.131805,309.179749 
	C477.998535,306.207489 478.199951,303.012878 478.406464,299.891968 
	C478.477783,298.814209 477.752075,297.683777 477.390442,296.577393 
	C475.991730,297.204620 473.458405,297.715546 473.380280,298.478088 
	C472.908813,303.079193 472.999390,307.737823 473.577667,312.837860 
M466.734314,301.336517 
	C466.467957,303.634247 465.977600,305.937408 466.033447,308.227295 
	C466.059784,309.307953 467.133606,310.363129 467.732819,311.429840 
	C468.677002,310.491638 470.171997,309.691467 470.449066,308.586029 
	C471.002991,306.376373 471.042542,303.995209 470.978119,301.693665 
	C470.951477,300.742462 470.111176,299.814026 469.640930,298.875214 
	C468.737030,299.416901 467.833130,299.958588 466.734314,301.336517 
z"/>
<path fill="#BE948A" opacity="1.000000" stroke="none" 
	d="
M241.619537,340.804596 
	C240.039322,341.708099 238.437302,343.385254 236.883759,343.341492 
	C234.278046,343.268127 231.538849,342.416138 229.208496,341.210266 
	C228.439636,340.812408 228.594925,338.307159 228.615128,336.769287 
	C228.665222,332.956635 228.982056,329.146637 229.000626,325.334656 
	C229.017395,321.893219 230.162491,320.243683 233.852676,321.440521 
	C237.501083,322.623779 241.129547,323.769012 244.491257,320.458679 
	C245.029434,319.928680 247.513306,320.239807 247.596375,320.556244 
	C248.527771,324.104095 253.413910,326.098724 251.307266,330.946747 
	C250.225632,333.435883 250.897705,336.706268 249.754288,339.143677 
	C248.742981,341.299438 246.313828,342.790100 244.510651,344.574371 
	C243.660233,343.617462 242.809830,342.660522 242.349518,341.359192 
	C243.839203,339.690094 245.537262,338.511261 245.903702,337.007843 
	C246.513870,334.504639 246.449341,331.783630 246.307373,329.174011 
	C246.241180,327.957672 245.328262,326.787354 244.799133,325.596191 
	C243.773483,326.594360 241.965240,327.518066 241.861877,328.604065 
	C241.477509,332.642029 241.653778,336.733307 241.619537,340.804596 
M234.883957,331.480682 
	C234.762802,333.791260 234.441666,336.117798 234.624634,338.404053 
	C234.692337,339.250061 235.881577,340.544250 236.675751,340.636932 
	C237.411804,340.722931 238.930328,339.554077 239.020493,338.807007 
	C239.474823,335.042206 239.699646,331.234467 239.695999,327.442108 
	C239.695236,326.659088 238.396545,325.276062 237.666702,325.256317 
	C236.863724,325.234650 235.706329,326.315491 235.290390,327.193970 
	C234.828033,328.170502 235.027985,329.460632 234.883957,331.480682 
z"/>
<path fill="#0C304F" opacity="1.000000" stroke="none" 
	d="
M298.769135,216.489868 
	C297.256317,216.613846 295.606689,216.754745 294.450714,216.066483 
	C287.526306,211.943756 279.898468,211.053070 271.663635,210.793671 
	C270.736145,209.532501 269.732239,208.188538 269.934143,207.060410 
	C270.055817,206.380371 272.161102,205.446655 273.189728,205.635651 
	C280.268890,206.936493 287.351288,208.300278 294.318573,210.088287 
	C296.976746,210.770462 299.558868,212.456573 298.769135,216.489868 
z"/>
<path fill="#0C304F" opacity="1.000000" stroke="none" 
	d="
M435.373627,204.976715 
	C429.277222,207.631805 423.566589,210.272552 417.747925,212.648804 
	C416.270355,213.252243 414.449219,213.014374 412.458405,213.035095 
	C413.002899,211.156876 413.429352,208.495590 414.823883,207.813477 
	C420.988098,204.798370 427.369934,202.185150 433.823212,199.839828 
	C435.138062,199.361954 437.100861,200.666794 438.764954,201.149841 
	C437.749725,202.387955 436.734497,203.626068 435.373627,204.976715 
z"/>
<path fill="#15395A" opacity="1.000000" stroke="none" 
	d="
M241.713150,340.812195 
	C241.653778,336.733307 241.477509,332.642029 241.861877,328.604065 
	C241.965240,327.518066 243.773483,326.594360 244.799133,325.596191 
	C245.328262,326.787354 246.241180,327.957672 246.307373,329.174011 
	C246.449341,331.783630 246.513870,334.504639 245.903702,337.007843 
	C245.537262,338.511261 243.839203,339.690094 242.326508,340.994568 
	C241.913437,340.974304 241.806747,340.819763 241.713150,340.812195 
z"/>
<path fill="#8F562C" opacity="1.000000" stroke="none" 
	d="
M500.845947,447.732605 
	C499.208832,447.648346 497.689423,447.200470 496.169983,446.752594 
	C496.979370,445.628143 497.788757,444.503693 498.598145,443.379272 
	C499.386658,444.709167 500.175140,446.039062 500.845947,447.732605 
z"/>
<path fill="#865027" opacity="1.000000" stroke="none" 
	d="
M313.880737,364.183899 
	C313.913696,364.609741 313.667725,365.103363 313.140167,365.666016 
	C313.106293,365.240601 313.354034,364.746155 313.880737,364.183899 
z"/>
<path fill="#865027" opacity="1.000000" stroke="none" 
	d="
M429.746979,349.978271 
	C429.308929,350.021790 428.786377,349.762482 428.135559,349.236389 
	C428.559052,349.204865 429.110779,349.440125 429.746979,349.978271 
z"/>
<path fill="#865027" opacity="1.000000" stroke="none" 
	d="
M427.928436,348.745789 
	C427.716888,348.842468 427.404877,348.698547 427.009033,348.303192 
	C427.226135,348.202911 427.527039,348.354065 427.928436,348.745789 
z"/>
<path fill="#B8774A" opacity="1.000000" stroke="none" 
	d="
M229.993713,156.005005 
	C230.114868,156.144730 230.242065,156.279678 230.369263,156.414627 
	C230.282974,156.366165 230.196671,156.317688 230.059631,156.128815 
	C230.008865,155.988419 229.999741,156.000214 229.993713,156.005005 
z"/>
<path fill="#B8774A" opacity="1.000000" stroke="none" 
	d="
M246.005768,143.995316 
	C246.135498,144.140137 246.259689,144.289459 246.383881,144.438782 
	C246.289169,144.392471 246.194473,144.346161 246.045715,144.155136 
	C245.991684,144.010422 246.000229,143.999817 246.005768,143.995316 
z"/>
<path fill="#915A4C" opacity="1.000000" stroke="none" 
	d="
M427.122742,355.878296 
	C436.495178,360.287140 441.132294,368.783875 445.223145,377.506989 
	C450.331635,388.400085 454.357452,399.799744 451.799408,412.021301 
	C450.947357,416.092102 448.203064,420.309998 445.121948,423.162476 
	C443.342590,424.809814 439.027191,424.451538 436.136871,423.778229 
	C435.085266,423.533264 434.128113,419.669891 434.374207,417.606018 
	C435.648254,406.922394 431.152954,398.417267 423.148834,397.181366 
	C415.702515,396.031616 405.595856,401.106537 402.064270,407.837036 
	C401.218018,409.449829 400.585876,411.175018 399.521576,412.686707 
	C398.972778,409.059814 399.401550,404.886383 395.151917,403.776306 
	C391.077545,402.712006 386.644379,402.097961 382.485352,402.497803 
	C376.268707,403.095459 370.162079,404.797424 363.994110,405.951691 
	C355.861755,407.473541 354.028931,409.625458 353.981964,417.936676 
	C346.853607,412.997314 339.512054,410.422791 331.384094,415.773224 
	C325.277252,419.793213 324.194183,423.376312 327.139191,430.116638 
	C330.683350,438.228088 329.487091,440.710388 321.015411,442.824066 
	C312.360596,444.983459 303.912262,440.812592 301.004578,432.436951 
	C298.643005,425.634430 296.368652,418.715729 295.081696,411.661316 
	C294.408997,407.973846 295.447693,403.726105 296.615448,400.015259 
	C298.000366,395.614288 300.356140,391.518890 302.632660,387.510590 
	C302.799530,389.203125 302.188477,390.788422 302.533203,392.127716 
	C303.514832,395.941132 304.171692,400.226715 306.479340,403.105713 
	C307.321686,404.156616 312.701996,402.275452 315.582153,400.858246 
	C325.061920,396.193512 333.910492,389.822327 343.807831,386.532074 
	C357.705139,381.912140 372.224548,378.917206 386.668335,376.264282 
	C398.504303,374.090363 410.552490,372.716553 422.723419,374.933105 
	C425.363739,375.413971 429.271088,374.495605 430.994720,372.692261 
	C432.371887,371.251495 431.869263,367.342896 431.202148,364.790833 
	C430.388245,361.677277 428.529572,358.836823 427.122742,355.878296 
M440.833038,374.924225 
	C439.652863,374.420288 438.449799,373.503693 437.301178,373.567535 
	C436.615265,373.605621 435.281769,375.588654 435.506409,375.992432 
	C436.353363,377.514618 437.719574,378.747925 439.799316,381.128754 
	C440.392303,378.327332 440.673828,376.997192 440.833038,374.924225 
z"/>
<path fill="#B07C6F" opacity="1.000000" stroke="none" 
	d="
M354.211304,418.187988 
	C354.028931,409.625458 355.861755,407.473541 363.994110,405.951691 
	C370.162079,404.797424 376.268707,403.095459 382.485352,402.497803 
	C386.644379,402.097961 391.077545,402.712006 395.151917,403.776306 
	C399.401550,404.886383 398.972778,409.059814 399.312134,412.970276 
	C398.119415,422.109985 401.179260,429.727264 405.712036,436.758026 
	C409.940735,443.317139 415.855621,446.556610 424.670074,443.898132 
	C433.818512,444.801727 436.899963,455.706390 433.829437,460.414154 
	C430.296448,465.830994 413.499542,473.600250 407.029633,472.514282 
	C396.942871,470.821259 392.075287,465.465424 390.001495,454.007416 
	C389.504150,451.259613 388.780182,448.522552 387.814972,445.908051 
	C387.522980,445.117157 385.979370,444.215424 385.172516,444.349365 
	C384.371674,444.482300 383.236542,445.830231 383.196167,446.689880 
	C383.088989,448.972137 383.404053,451.290436 383.710663,453.572968 
	C384.737732,461.219391 385.662476,468.785095 378.852051,474.651154 
	C371.397919,481.071594 352.968933,480.859497 345.706512,474.181549 
	C344.850830,473.394775 343.980255,472.599060 343.262787,471.691833 
	C340.911713,468.718872 341.517456,466.078857 345.019745,464.552185 
	C347.903290,463.295227 351.045868,462.561066 353.777679,461.057465 
	C355.163452,460.294678 355.895630,458.344452 356.923279,456.931061 
	C362.905701,452.435425 364.564392,446.619537 363.197540,439.298615 
	C361.766479,431.634186 359.700867,424.414032 354.211304,418.187988 
z"/>
<path fill="#AF7C70" opacity="1.000000" stroke="none" 
	d="
M427.105835,355.889496 
	C428.529572,358.836823 430.388245,361.677277 431.202148,364.790833 
	C431.869263,367.342896 432.371887,371.251495 430.994720,372.692261 
	C429.271088,374.495605 425.363739,375.413971 422.723419,374.933105 
	C410.552490,372.716553 398.504303,374.090363 386.668335,376.264282 
	C372.224548,378.917206 357.705139,381.912140 343.807831,386.532074 
	C333.910492,389.822327 325.061920,396.193512 315.582153,400.858246 
	C312.701996,402.275452 307.321686,404.156616 306.479340,403.105713 
	C304.171692,400.226715 303.514832,395.941132 302.533203,392.127716 
	C302.188477,390.788422 302.799530,389.203125 302.907654,387.297302 
	C302.841156,386.864471 302.898468,386.887299 303.184570,386.757050 
	C303.590607,385.983307 303.710480,385.339813 303.830383,384.696320 
	C303.830383,384.696320 303.867249,384.355469 304.187622,384.052612 
	C304.620850,383.399200 304.733704,383.048615 304.846558,382.698059 
	C308.654724,374.548492 316.033813,370.349152 323.625885,366.344238 
	C323.187866,367.722900 322.221802,368.688141 321.696259,369.852234 
	C320.834167,371.761810 320.258179,373.800598 319.561523,375.784882 
	C321.660004,376.373199 324.064087,377.931427 325.804382,377.383057 
	C333.612762,374.922638 341.332764,372.095642 348.847412,368.851318 
	C350.660980,368.068359 351.569611,365.189331 352.894409,363.274231 
	C351.099091,362.091156 349.415833,360.640869 347.467194,359.823212 
	C346.261169,359.317169 344.574982,359.486786 343.236603,359.845947 
	C337.378723,361.417755 331.569122,363.169556 325.742035,364.856049 
	C331.631531,362.316833 337.301056,358.693604 343.452515,357.445251 
	C360.696716,353.945709 378.065125,350.768005 395.534576,348.785370 
	C404.921326,347.720123 414.874878,347.843018 423.934021,353.822723 
	C424.858948,354.584259 425.433105,354.797150 426.007233,355.010040 
	C426.007233,355.010040 425.997192,355.003662 426.095215,355.238220 
	C426.491425,355.628082 426.789612,355.783417 427.087769,355.938721 
	C427.087769,355.938721 427.088928,355.900696 427.105835,355.889496 
M367.068542,355.161560 
	C366.246643,355.127411 365.056274,354.728607 364.666748,355.122314 
	C362.992340,356.814392 361.107635,358.557190 360.244781,360.667908 
	C359.892548,361.529541 362.477631,364.695374 362.811157,364.559906 
	C365.565674,363.440918 368.105286,361.792877 370.709991,360.305084 
	C369.742157,358.682953 368.774353,357.060791 367.068542,355.161560 
z"/>
<path fill="#8F5A4C" opacity="1.000000" stroke="none" 
	d="
M356.585083,457.052612 
	C355.895630,458.344452 355.163452,460.294678 353.777679,461.057465 
	C351.045868,462.561066 347.903290,463.295227 345.019745,464.552185 
	C341.517456,466.078857 340.911713,468.718872 343.262787,471.691833 
	C343.980255,472.599060 344.850830,473.394775 345.706512,474.181549 
	C352.968933,480.859497 371.397919,481.071594 378.852051,474.651154 
	C385.662476,468.785095 384.737732,461.219391 383.710663,453.572968 
	C383.404053,451.290436 383.088989,448.972137 383.196167,446.689880 
	C383.236542,445.830231 384.371674,444.482300 385.172516,444.349365 
	C385.979370,444.215424 387.522980,445.117157 387.814972,445.908051 
	C388.780182,448.522552 389.504150,451.259613 390.001495,454.007416 
	C392.075287,465.465424 396.942871,470.821259 407.029633,472.514282 
	C413.499542,473.600250 430.296448,465.830994 433.829437,460.414154 
	C436.899963,455.706390 433.818512,444.801727 425.066223,443.885864 
	C427.142212,442.808289 429.556946,441.695251 432.071899,440.898651 
	C437.900269,439.052551 440.022125,440.678406 440.211884,446.931885 
	C440.636108,460.912201 430.275269,476.794861 417.270020,482.129852 
	C414.807007,483.140259 412.296814,484.072937 409.937653,485.291718 
	C404.490753,488.105652 399.048126,489.219940 392.687622,488.625244 
	C386.360077,488.033661 379.842041,489.896606 373.385956,490.166077 
	C363.304291,490.586823 353.903564,487.993378 345.496979,482.328430 
	C339.020691,477.964294 332.633270,473.461609 326.334290,468.845886 
	C324.844574,467.754211 323.868469,465.961639 322.938599,464.834076 
	C334.281433,462.225586 345.264160,459.699890 356.585083,457.052612 
z"/>
<path fill="#CB988B" opacity="1.000000" stroke="none" 
	d="
M325.482361,364.919495 
	C331.569122,363.169556 337.378723,361.417755 343.236603,359.845947 
	C344.574982,359.486786 346.261169,359.317169 347.467194,359.823212 
	C349.415833,360.640869 351.099091,362.091156 352.894409,363.274231 
	C351.569611,365.189331 350.660980,368.068359 348.847412,368.851318 
	C341.332764,372.095642 333.612762,374.922638 325.804382,377.383057 
	C324.064087,377.931427 321.660004,376.373199 319.561523,375.784882 
	C320.258179,373.800598 320.834167,371.761810 321.696259,369.852234 
	C322.221802,368.688141 323.187866,367.722900 323.976868,366.313477 
	C324.406006,365.633392 324.814331,365.308167 325.482361,364.919495 
M346.218384,362.075775 
	C339.681519,364.376984 333.090851,366.543304 326.658875,369.107574 
	C325.541504,369.553040 325.094330,371.679565 324.337585,373.029633 
	C325.465057,373.518677 326.811035,374.675720 327.684967,374.389801 
	C333.975281,372.331970 340.255371,370.185120 346.352753,367.623901 
	C348.793579,366.598572 350.645264,364.443359 346.218384,362.075775 
z"/>
<path fill="#915A4C" opacity="1.000000" stroke="none" 
	d="
M303.589600,384.910217 
	C303.710480,385.339813 303.590607,385.983307 303.170288,386.783752 
	C303.029510,386.335144 303.189178,385.729614 303.589600,384.910217 
z"/>
<path fill="#915A4C" opacity="1.000000" stroke="none" 
	d="
M425.864075,354.742676 
	C425.433105,354.797150 424.858948,354.584259 424.176910,354.068359 
	C424.619629,354.001984 425.170258,354.238647 425.864075,354.742676 
z"/>
<path fill="#915A4C" opacity="1.000000" stroke="none" 
	d="
M304.623322,382.864136 
	C304.733704,383.048615 304.620850,383.399200 304.268494,383.901489 
	C304.152710,383.712189 304.276398,383.371216 304.623322,382.864136 
z"/>
<path fill="#915A4C" opacity="1.000000" stroke="none" 
	d="
M427.003296,355.688019 
	C426.789612,355.783417 426.491425,355.628082 426.090576,355.234314 
	C426.298218,355.143005 426.608521,355.290161 427.003296,355.688019 
z"/>
<path fill="#B9774A" opacity="1.000000" stroke="none" 
	d="
M437.226440,238.066376 
	C437.258667,237.728043 437.517090,237.220795 437.969360,236.876450 
	C437.926361,237.325394 437.689484,237.611435 437.226440,238.066376 
z"/>
<path fill="#B9774A" opacity="1.000000" stroke="none" 
	d="
M440.871094,233.720856 
	C440.666351,233.750336 440.537384,233.554886 440.455841,233.341309 
	C440.441711,233.304367 440.628540,233.190659 440.900757,233.059341 
	C441.079010,233.006287 440.962921,233.489807 440.871094,233.720856 
z"/>
<path fill="#0F3557" opacity="1.000000" stroke="none" 
	d="
M473.239807,312.607544 
	C472.999390,307.737823 472.908813,303.079193 473.380280,298.478088 
	C473.458405,297.715546 475.991730,297.204620 477.390442,296.577393 
	C477.752075,297.683777 478.477783,298.814209 478.406464,299.891968 
	C478.199951,303.012878 477.998535,306.207489 477.131805,309.179749 
	C476.711273,310.621948 474.809113,311.632111 473.239807,312.607544 
z"/>
<path fill="#113658" opacity="1.000000" stroke="none" 
	d="
M466.831787,300.918396 
	C467.833130,299.958588 468.737030,299.416901 469.640930,298.875214 
	C470.111176,299.814026 470.951477,300.742462 470.978119,301.693665 
	C471.042542,303.995209 471.002991,306.376373 470.449066,308.586029 
	C470.171997,309.691467 468.677002,310.491638 467.732819,311.429840 
	C467.133606,310.363129 466.059784,309.307953 466.033447,308.227295 
	C465.977600,305.937408 466.467957,303.634247 466.831787,300.918396 
z"/>
<path fill="#103658" opacity="1.000000" stroke="none" 
	d="
M234.911774,331.047455 
	C235.027985,329.460632 234.828033,328.170502 235.290390,327.193970 
	C235.706329,326.315491 236.863724,325.234650 237.666702,325.256317 
	C238.396545,325.276062 239.695236,326.659088 239.695999,327.442108 
	C239.699646,331.234467 239.474823,335.042206 239.020493,338.807007 
	C238.930328,339.554077 237.411804,340.722931 236.675751,340.636932 
	C235.881577,340.544250 234.692337,339.250061 234.624634,338.404053 
	C234.441666,336.117798 234.762802,333.791260 234.911774,331.047455 
z"/>
<path fill="#C38E80" opacity="1.000000" stroke="none" 
	d="
M440.894226,375.295654 
	C440.673828,376.997192 440.392303,378.327332 439.799316,381.128754 
	C437.719574,378.747925 436.353363,377.514618 435.506409,375.992432 
	C435.281769,375.588654 436.615265,373.605621 437.301178,373.567535 
	C438.449799,373.503693 439.652863,374.420288 440.894226,375.295654 
z"/>
<path fill="#CA988B" opacity="1.000000" stroke="none" 
	d="
M367.437561,355.300110 
	C368.774353,357.060791 369.742157,358.682953 370.709991,360.305084 
	C368.105286,361.792877 365.565674,363.440918 362.811157,364.559906 
	C362.477631,364.695374 359.892548,361.529541 360.244781,360.667908 
	C361.107635,358.557190 362.992340,356.814392 364.666748,355.122314 
	C365.056274,354.728607 366.246643,355.127411 367.437561,355.300110 
z"/>
<path fill="#F3EFEE" opacity="1.000000" stroke="none" 
	d="
M346.605774,362.127686 
	C350.645264,364.443359 348.793579,366.598572 346.352753,367.623901 
	C340.255371,370.185120 333.975281,372.331970 327.684967,374.389801 
	C326.811035,374.675720 325.465057,373.518677 324.337585,373.029633 
	C325.094330,371.679565 325.541504,369.553040 326.658875,369.107574 
	C333.090851,366.543304 339.681519,364.376984 346.605774,362.127686 
z"/>
</svg>