<svg width="64" height="64" viewBox="0 0 64 64" fill="none" xmlns="http://www.w3.org/2000/svg">
  <defs>
    <linearGradient id="bg64" x1="0" y1="0" x2="64" y2="64">
      <stop offset="0%" stop-color="#D4862E"/>
      <stop offset="100%" stop-color="#8C4E14"/>
    </linearGradient>
    <linearGradient id="eL64" x1="15" y1="6" x2="24" y2="34">
      <stop offset="0%" stop-color="#F5E6D3"/>
      <stop offset="100%" stop-color="#C4956A"/>
    </linearGradient>
    <linearGradient id="eR64" x1="49" y1="6" x2="40" y2="34">
      <stop offset="0%" stop-color="#F5E6D3"/>
      <stop offset="100%" stop-color="#C4956A"/>
    </linearGradient>
  </defs>

  <!-- Background -->
  <rect width="64" height="64" rx="14" fill="url(#bg64)"/>

  <!-- Left ear -->
  <path d="M 17 35 L 13 10 C 12.7 8 14 7 15.8 7.5 L 28 32 C 27 34 19.5 36.5 17 35 Z" fill="url(#eL64)" opacity="0.92"/>
  <path d="M 19 33 L 15.5 13 C 15.3 11.5 16.2 10.5 17.3 11 L 26 30 C 25.5 32 21 34 19 33 Z" fill="#D4928A" opacity="0.28"/>

  <!-- Right ear -->
  <path d="M 47 35 L 51 10 C 51.3 8 50 7 48.2 7.5 L 36 32 C 37 34 44.5 36.5 47 35 Z" fill="url(#eR64)" opacity="0.92"/>
  <path d="M 45 33 L 48.5 13 C 48.7 11.5 47.8 10.5 46.7 11 L 38 30 C 38.5 32 43 34 45 33 Z" fill="#D4928A" opacity="0.28"/>

  <!-- Waveform bars -->
  <g opacity="0.92">
    <rect x="22.5" y="42" width="2" rx="1" height="5"  fill="white"/>
    <rect x="26.2" y="39.5" width="2" rx="1" height="10" fill="white"/>
    <rect x="29.9" y="37" width="2" rx="1" height="15" fill="white"/>
    <rect x="33.6" y="39.5" width="2" rx="1" height="10" fill="white"/>
    <rect x="37.3" y="42" width="2" rx="1" height="5"  fill="white"/>
  </g>
</svg>
